<svg width="40" height="34" viewBox="0 0 40 34" fill="none" xmlns="http://www.w3.org/2000/svg">
<g clip-path="url(#clip0_305_18716)">
<path d="M19.8245 24.2021C23.9042 24.2021 27.2115 20.5894 27.2115 16.1328C27.2115 11.6762 23.9042 8.06348 19.8245 8.06348C15.7448 8.06348 12.4375 11.6762 12.4375 16.1328C12.4375 20.5894 15.7448 24.2021 19.8245 24.2021Z" fill="#B5B9B9"/>
<path d="M12.4375 16.1333C16.8697 20.9749 19.8245 16.1333 19.8245 16.1333C19.8245 16.1333 23.0255 11.5607 27.2115 16.1333" fill="#B5B9B9"/>
<path d="M12.4375 16.1333C16.8697 20.9749 19.8245 16.1333 19.8245 16.1333C19.8245 16.1333 23.0255 11.5607 27.2115 16.1333" stroke="white" stroke-miterlimit="10"/>
<path d="M5.42392 0.0625075L0.441406 8.07129L1.9403 9.18403L6.92282 1.17525L5.42392 0.0625075Z" fill="#878C91"/>
<path d="M7.52744 1.6211L2.54492 9.62988L4.04382 10.7426L9.02633 2.73384L7.52744 1.6211Z" fill="#878C91"/>
<path d="M9.62705 3.18507L4.64453 11.1938L6.14343 12.3066L11.1259 4.29781L9.62705 3.18507Z" fill="#878C91"/>
<path d="M35.9082 28.0761L38.5429 25.3057L39.8036 26.7366L37.164 29.5017" fill="#878C91"/>
<path d="M36.1 30.6204L33.4111 33.4447L32.1504 32.0137L34.8442 29.1895" fill="#878C91"/>
<path d="M34.1504 26.0747L36.7851 23.3042L38.0409 24.7352L35.4062 27.5002" fill="#878C91"/>
<path d="M34.3372 28.6189L31.6484 31.4432L30.3926 30.0122L33.0814 27.1934" fill="#878C91"/>
<path d="M32.3867 24.0732L35.0263 21.3027L36.2821 22.7337L33.6425 25.4988" fill="#878C91"/>
<path d="M32.5794 26.618L29.8906 29.4422L28.6348 28.0113L31.3236 25.1924" fill="#878C91"/>
<path d="M35.5227 4.40585L33.4199 1.14046L34.9022 0L37.0051 3.26539" fill="#878C91"/>
<path d="M37.8583 4.58887L40.0006 7.91881L38.5182 9.05928L36.3711 5.72933" fill="#878C91"/>
<path d="M37.9245 9.51557L32.8262 1.59424L31.3436 2.73284L36.442 10.6542L37.9245 9.51557Z" fill="#878C91"/>
<path d="M31.3665 7.60117L29.2637 4.33041L30.746 3.18994L32.8488 6.46071" fill="#878C91"/>
<path d="M33.7021 7.7793L35.8443 11.1146L34.362 12.2551L32.2148 8.91976" fill="#878C91"/>
<path d="M10.9284 29.2638L5.35352 21.7354L3.94452 22.9804L9.51944 30.5088L10.9284 29.2638Z" fill="#878C91"/>
<path d="M4.25574 27.8071L1.9707 24.7246L3.37915 23.4819L5.67897 26.5859" fill="#878C91"/>
<path d="M6.61158 27.8394L8.95571 31.0079L7.54726 32.256L5.20312 29.0874" fill="#878C91"/>
<path d="M6.98313 32.755L1.4082 25.2266L-0.00079404 26.4716L5.57413 34.0001L6.98313 32.755Z" fill="#878C91"/>
</g>
<defs>
<clipPath id="clip0_305_18716">
<rect width="40" height="34" fill="white"/>
</clipPath>
</defs>
</svg>
