<svg width="40" height="34" viewBox="0 0 40 34" fill="none" xmlns="http://www.w3.org/2000/svg">
<g clip-path="url(#clip0_305_18711)">
<path d="M39.1489 0.659483L38.7234 0.169181L33.617 2.62069L28.0851 0.169181C28.0851 0.169181 22.0426 -0.497629 19.5319 0.81638C17.0213 2.13039 10.2128 5.5625 8.08511 10.9558C6.28936 15.5058 1.46383 19.0115 0 19.9921V34H21.3191C21.8213 32.029 22 29.9991 21.7021 28.1164C20.8511 22.7231 22.9787 18.3103 22.9787 18.3103L27.234 24.194C27.234 24.194 27.234 30.0776 28.0851 32.0388C28.9362 34 30.6383 34 30.6383 34C30.6383 34 33.617 33.5097 34.4681 31.5485C34.4681 31.5485 35.7447 29.5873 35.7447 27.1358V7.03341C35.7447 7.03341 35.7447 5.5625 37.0213 4.5819C37.0213 4.5819 40 2.13039 40 1.64009L39.1489 0.659483Z" fill="#B5B9B9"/>
</g>
<defs>
<clipPath id="clip0_305_18711">
<rect width="40" height="34" fill="white"/>
</clipPath>
</defs>
</svg>
