<svg width="34" height="40" viewBox="0 0 34 40" fill="none" xmlns="http://www.w3.org/2000/svg">
<g clip-path="url(#clip0_305_18712)">
<path d="M29.0774 7.58154H4.81055V32.6517H29.0774V7.58154Z" fill="#B5B9B9"/>
<path d="M31.2485 4.03711L29.0665 7.58147H4.80974L1.9375 4.03711H31.2485Z" fill="#858A8F"/>
<path d="M10.4141 10.5112V29.7483" stroke="white" stroke-width="3" stroke-linecap="round" stroke-linejoin="round"/>
<path d="M16.8281 10.5112V29.7483" stroke="white" stroke-width="3" stroke-linecap="round" stroke-linejoin="round"/>
<path d="M23.2324 10.5112V29.7483" stroke="white" stroke-width="3" stroke-linecap="round" stroke-linejoin="round"/>
<path d="M1.9375 36.0156L4.80974 32.6514H29.0665L31.2485 36.0156H1.9375Z" fill="#858A8F"/>
<path d="M31.8788 0H1.61373C0.722492 0 0 0.377147 0 0.842382V3.39602C0 3.86125 0.722492 4.2384 1.61373 4.2384H31.8788C32.77 4.2384 33.4925 3.86125 33.4925 3.39602V0.842382C33.4925 0.377147 32.77 0 31.8788 0Z" fill="#B5B9B9"/>
<path d="M32.3866 35.7617H2.12154C1.2303 35.7617 0.507812 36.1389 0.507812 36.6041V39.1577C0.507812 39.623 1.2303 40.0001 2.12154 40.0001H32.3866C33.2779 40.0001 34.0004 39.623 34.0004 39.1577V36.6041C34.0004 36.1389 33.2779 35.7617 32.3866 35.7617Z" fill="#B5B9B9"/>
</g>
<defs>
<clipPath id="clip0_305_18712">
<rect width="34" height="40" fill="white"/>
</clipPath>
</defs>
</svg>
