<svg width="36" height="44" viewBox="0 0 36 44" fill="none" xmlns="http://www.w3.org/2000/svg">
<g clip-path="url(#clip0_305_18724)">
<path d="M30.8756 18.8695C30.8756 11.6927 25.0628 5.87988 17.8861 5.87988C10.7093 5.87988 4.89648 11.6927 4.89648 18.8695C4.89648 21.987 6.0006 24.8512 7.83213 27.0919C7.83213 27.0919 7.83862 27.0984 7.84512 27.1049C8.03347 27.3387 8.2413 27.553 8.44914 27.7738C10.3326 29.9691 11.3068 32.2487 11.3068 32.2487C13.1644 34.5804 12.8851 42.2572 12.8851 42.2572H23.7379C23.7379 42.2572 23.4781 35.2298 24.9069 32.2487C26.3358 29.2676 28.1933 26.7931 28.1933 26.7931H28.1803C29.869 24.5979 30.8821 21.8636 30.8821 18.8825L30.8756 18.8695Z" fill="#B5B9B9"/>
<path d="M12.2363 34.4116H24.2322" stroke="white" stroke-width="3" stroke-linejoin="round"/>
<path d="M12.8008 38.3799H23.777" stroke="white" stroke-width="3" stroke-linejoin="round"/>
<path d="M14.7812 34.4116V25.3579C14.7812 25.3579 18.2819 32.4957 21.3345 25.3579V34.4116" stroke="white" stroke-width="3" stroke-linejoin="round"/>
<path d="M1 18.2202H2.59772" stroke="#858A8F" stroke-width="2" stroke-linecap="round" stroke-linejoin="round"/>
<path d="M3.5918 9.60156L4.97519 10.4004" stroke="#858A8F" stroke-width="2" stroke-linecap="round" stroke-linejoin="round"/>
<path d="M9.7168 3.79492L10.5157 5.17831" stroke="#858A8F" stroke-width="2" stroke-linecap="round" stroke-linejoin="round"/>
<path d="M17.9062 1.74268V3.34039" stroke="#858A8F" stroke-width="2" stroke-linecap="round" stroke-linejoin="round"/>
<path d="M26.5254 4.17188L25.7266 5.55527" stroke="#858A8F" stroke-width="2" stroke-linecap="round" stroke-linejoin="round"/>
<path d="M32.942 10.1406L31.5586 10.9395" stroke="#858A8F" stroke-width="2" stroke-linecap="round" stroke-linejoin="round"/>
<path d="M35.0001 18.9863H33.4023" stroke="#858A8F" stroke-width="2" stroke-linecap="round" stroke-linejoin="round"/>
</g>
<defs>
<clipPath id="clip0_305_18724">
<rect width="36" height="42.5146" fill="white" transform="translate(0 0.742676)"/>
</clipPath>
</defs>
</svg>
