<svg width="34" height="36" viewBox="0 0 34 36" fill="none" xmlns="http://www.w3.org/2000/svg">
<g clip-path="url(#clip0_305_18723)">
<path d="M33.9996 8.93018H26.1543V35.1945H33.9996V8.93018Z" fill="#878C91"/>
<path d="M7.02901 0.805176V8.82052H0V35.1944H26.1547V0.805176H7.02901Z" fill="#B5B9B9"/>
<path d="M14.4956 3.84717H10.0703V8.17039H14.4956V3.84717Z" fill="white"/>
<path d="M14.4956 9.92773H10.0703V14.251H14.4956V9.92773Z" fill="white"/>
<path d="M14.4956 16.0122H10.0703V20.3354H14.4956V16.0122Z" fill="white"/>
<path d="M14.4956 22.0928H10.0703V26.416H14.4956V22.0928Z" fill="white"/>
<path d="M14.4956 28.1768H10.0703V32.5H14.4956V28.1768Z" fill="white"/>
<path d="M23.4604 3.84717H19.0352V8.17039H23.4604V3.84717Z" fill="white"/>
<path d="M23.4604 9.92773H19.0352V14.251H23.4604V9.92773Z" fill="white"/>
<path d="M23.4604 16.0122H19.0352V20.3354H23.4604V16.0122Z" fill="white"/>
<path d="M23.4604 22.0928H19.0352V26.416H23.4604V22.0928Z" fill="white"/>
<path d="M23.4604 28.1768H19.0352V32.5H23.4604V28.1768Z" fill="white"/>
<path d="M5.42597 11.3677H2.06641V14.6517H5.42597V11.3677Z" fill="white"/>
<path d="M5.42597 15.9893H2.06641V19.2732H5.42597V15.9893Z" fill="white"/>
<path d="M5.42597 20.6113H2.06641V23.8953H5.42597V20.6113Z" fill="white"/>
<path d="M5.42597 25.2329H2.06641V28.5169H5.42597V25.2329Z" fill="white"/>
<path d="M5.42597 29.8545H2.06641V33.1385H5.42597V29.8545Z" fill="white"/>
<path d="M31.3576 11.3677H27.998V14.6517H31.3576V11.3677Z" fill="white"/>
<path d="M31.3576 15.9893H27.998V19.2732H31.3576V15.9893Z" fill="white"/>
<path d="M31.3576 20.6113H27.998V23.8953H31.3576V20.6113Z" fill="white"/>
<path d="M31.3576 25.2329H27.998V28.5169H31.3576V25.2329Z" fill="white"/>
<path d="M31.3576 29.8545H27.998V33.1385H31.3576V29.8545Z" fill="white"/>
</g>
<defs>
<clipPath id="clip0_305_18723">
<rect width="34" height="34.3893" fill="white" transform="translate(0 0.805176)"/>
</clipPath>
</defs>
</svg>
