<svg width="38" height="36" viewBox="0 0 38 36" fill="none" xmlns="http://www.w3.org/2000/svg">
<g clip-path="url(#clip0_305_18719)">
<path d="M38 29.4992L24.1421 35.6522L0 25.2885V6.10168L14.3069 0.347656L19.2245 2.61607V6.32298L24.3667 8.60596V12.4934L28.8352 14.4386V17.9999L33.3069 19.9451V24.1558L38 25.7836V29.4992Z" fill="white"/>
<path d="M28.7738 17.9998L14.916 24.0741V20.2682L28.7738 14.4385V17.9998Z" fill="#B5B9BB"/>
<path d="M19.4492 25.775L33.307 19.9453V24.156L19.4492 29.811" fill="#B5B9BB"/>
<path d="M24.3669 8.60596L10.5059 14.4386V18.3959L24.3669 12.4934V8.60596Z" fill="#B5B9BB"/>
<path d="M37.9985 29.4993V25.7837L24.3652 31.9279V35.6523L37.9985 29.4993Z" fill="#B5B9BB"/>
<path d="M24.3667 35.6521L0 25.2884V6.10156L5.58804 8.60584V12.3885L10.5056 14.4385V18.3958L14.9774 20.2682V24.0741L19.4491 25.7747V29.8107L24.3667 31.9277V35.6521Z" fill="#8B9095"/>
</g>
<defs>
<clipPath id="clip0_305_18719">
<rect width="38" height="35.3046" fill="white" transform="translate(0 0.347656)"/>
</clipPath>
</defs>
</svg>
