<svg width="34" height="40" viewBox="0 0 34 40" fill="none" xmlns="http://www.w3.org/2000/svg">
<g clip-path="url(#clip0_305_18727)">
<path d="M12.9474 40.0002H0V7.5751L11.4417 3.7876V37.9849V38.0712L12.9474 40.0002Z" fill="#B5B9BB"/>
<path d="M1.00781 8.57883V9.66489L8.27081 7.41435V9.30418L1.00781 11.5194V12.4879L8.27081 10.2295V12.4879L1.00781 14.7031V15.6716L8.27081 13.4955V15.6716L1.00781 17.926V18.9258L8.27081 16.7576V18.9258L1.00781 21.1882V22.1566L8.27081 19.9805V22.1566L1.00781 24.5326V25.4187L8.27081 23.2427V25.4187L1.00781 27.5948V28.72L8.27081 26.446V28.72L1.00781 30.8569V31.9861L8.27081 29.6924V31.9861L1.00781 34.1582V34.9972L8.27081 32.8486V35.1658L1.00781 37.4125V38.5064L8.27081 36.1343L8.39683 38.5064H9.71677V5.75977L1.00781 8.57883Z" fill="white"/>
<path d="M12.543 0L4.53711 5.05L12.543 2.37601L12.9476 40.0001H34.0003V17.279L25.623 14.0443V5.05L12.543 0Z" fill="#8C9196"/>
<path d="M14.9512 5.36377V6.28124L23.4877 8.67685V8.17499L14.9512 5.36377Z" fill="white"/>
<path d="M14.9512 7.28906V8.33592L23.4877 10.6727V10.1081L14.9512 7.28906Z" fill="white"/>
<path d="M27.8906 17.6831V18.4085L33.3826 20.0003L33.3627 19.5651L27.8906 17.6831Z" fill="white"/>
<path d="M27.8906 19.5376V20.3022L33.3826 21.894L33.3627 21.4588L27.8906 19.5376Z" fill="white"/>
<path d="M26.1597 15.4556L25.0918 15.7692V38.4982H26.1597V15.4556Z" fill="white"/>
<path d="M23.4859 16.0713L22.418 16.4085V38.2278H23.4859V16.0713Z" fill="white"/>
<path d="M21.3511 16.8833L20.2832 17.197V38.2282H21.3511V16.8833Z" fill="white"/>
</g>
<defs>
<clipPath id="clip0_305_18727">
<rect width="34.0003" height="40.0001" fill="white"/>
</clipPath>
</defs>
</svg>
