<svg width="42" height="38" viewBox="0 0 42 38" fill="none" xmlns="http://www.w3.org/2000/svg">
<g clip-path="url(#clip0_305_18718)">
<path d="M10.8097 26.0285C10.8097 26.0285 3.77543 32.3895 0.851528 33.528C-2.07237 34.6664 3.47179 36.2578 3.47179 36.2578C3.47179 36.2578 16.2226 37.9633 20.2542 37.9633C24.2858 37.9633 32.4502 38.1919 34.1652 37.5063C35.8783 36.8249 40.5153 35.9149 41.6249 34.3194C42.7345 32.7281 41.0289 30.722 41.0289 30.722C41.0289 30.722 34.7369 26.1724 31.3763 26.9426L10.8078 26.02L10.8097 26.0285Z" fill="#B5B9BC"/>
<path d="M33.0674 26.9773C33.0674 26.9773 34.2389 27.6418 33.4329 27.8703C32.627 28.0988 31.4668 28.9114 31.4668 28.9114C31.4668 28.9114 29.3001 30.3758 28.1905 30.3758C27.0809 30.3758 25.7708 30.8329 25.7708 30.8329C25.7708 30.8329 24.8636 31.2899 25.7708 31.5142C26.678 31.7386 26.5543 31.9036 25.8102 32.0517C25.0661 32.1999 22.7476 32.4242 22.3446 32.6527C21.9416 32.8813 20.832 33.1098 18.716 31.7428C18.716 31.7428 17.4058 30.8329 15.9945 31.5142C15.9945 31.5142 14.1802 32.8813 11.8617 31.5142C11.8617 31.5142 7.89753 28.5051 7.61264 28.7591C7.32775 29.013 10.7315 26.0674 10.7315 26.0674" fill="#8D9297"/>
<path d="M10.8309 25.7874L12.141 16.9125C12.141 16.9125 12.141 16.4554 12.4428 15.774L13.4511 13.2685C13.4511 13.2685 13.5242 13.04 13.6892 13.2685C13.6892 13.2685 13.7885 13.751 13.9722 13.1669L15.8708 4.61786C15.8708 4.61786 15.9721 3.93647 16.375 3.70793C16.375 3.70793 17.8876 2.56946 18.9953 2.798L19.9024 0.521071L20.0037 0.292531C20.0037 0.292531 20.2061 -0.164549 20.4066 0.0639912L21.2126 0.973918C21.2126 0.973918 21.7168 1.65531 21.818 3.02231L22.5227 10.5345C22.5227 10.5345 22.5733 11.1016 22.7739 11.5587L23.0756 12.2401C23.0756 12.2401 23.1768 12.4686 23.1768 13.15L23.0756 18.3853C23.0756 18.3853 23.0756 19.0878 23.1768 19.6465L23.5798 22.025L23.681 28.6272L22.3709 29.0843C22.3709 29.0843 21.7655 29.3129 21.3625 29.3129H20.0824C20.0824 29.3129 19.7488 29.3129 19.447 29.5414C19.447 29.5414 18.641 30.4513 17.8351 30.4513C17.8351 30.4513 16.4238 30.4513 16.0208 29.9942L16.3225 28.4029H15.7171C15.7171 28.4029 14.9112 29.7699 13.9028 29.7699C13.9028 29.7699 12.1897 29.7699 11.6855 29.5414C11.1814 29.3129 10.4766 28.4029 10.4766 28.4029C10.4766 28.4029 10.3754 28.1744 10.4766 27.493C10.5778 26.8116 10.7784 26.3545 10.7784 26.3545L10.829 25.7874H10.8309Z" fill="#242628"/>
<path d="M23.581 22.0332L24.7393 16.4551C24.7393 16.4551 24.8911 14.9738 25.1929 14.521C25.4946 14.0682 26.6042 12.2441 26.7054 11.5627C26.8067 10.8813 27.0072 10.8813 27.0072 10.8813C27.0072 10.8813 27.7119 10.6528 28.1168 11.3384C28.5216 12.024 29.1252 15.8922 29.1252 15.8922C29.1252 15.8922 29.4269 17.0307 29.4269 19.3076C29.4269 21.5846 29.9311 25.6814 29.9311 25.6814C29.9311 25.6814 30.0323 26.5913 30.5365 26.3627C31.0407 26.1342 31.5449 27.2727 31.5449 27.2727H28.248C28.248 27.2727 27.815 27.2727 27.6145 27.7298C27.6145 27.7298 27.1103 28.8682 26.6061 28.8682H25.9014C25.9014 28.8682 25.6989 28.8682 25.6989 29.0968C25.6989 29.3253 25.9014 29.5538 25.9014 29.5538C25.9014 29.5538 26.1038 29.7824 25.5996 30.0109C25.5996 30.0109 24.6925 30.468 24.49 30.6923C24.2876 30.9166 22.0703 30.2352 22.0703 30.2352L22.3721 28.6439C22.3721 28.6439 22.775 27.2769 22.8763 25.6856L23.0787 25.2285C23.0787 25.2285 23.1799 22.723 23.5829 22.0417L23.581 22.0332Z" fill="#242628"/>
</g>
<defs>
<clipPath id="clip0_305_18718">
<rect width="42" height="38" fill="white"/>
</clipPath>
</defs>
</svg>
