<svg width="38" height="34" viewBox="0 0 38 34" fill="none" xmlns="http://www.w3.org/2000/svg">
<g clip-path="url(#clip0_305_18722)">
<path d="M6.27387 7.84619L6.28111 10.3517L0.121094 11.5077V9.67696L6.27387 7.84619Z" fill="#898E93"/>
<path d="M6.28111 12.8159V15.8707H0.121094V13.6895L6.28111 12.8159Z" fill="#898E93"/>
<path d="M6.28111 18.2764L6.27387 20.8917L0.121094 20.353V18.2764H6.28111Z" fill="#898E93"/>
<path d="M6.27342 23.2563L0 21.8335V23.9415L6.27342 26.1541V23.2563Z" fill="#898E93"/>
<path d="M19.0012 0L6.27344 5.00583V7.84613L19.0012 4.1846L31.729 7.84613V5.00583L19.0012 0Z" fill="#B5B9B9"/>
<path d="M19.0012 33.9999L31.729 28.9941V26.1538L19.0012 29.8153L6.27344 26.1538V28.9941L19.0012 33.9999Z" fill="#B5B9B9"/>
<path d="M6.28125 10.3517V12.8154L18.9415 11.581L31.7658 12.8154V10.3517L18.9415 7.84619L6.28125 10.3517Z" fill="#B5B9B9"/>
<path d="M31.7658 15.8701H6.28125V18.2763H31.7658V15.8701Z" fill="#B5B9B9"/>
<path d="M6.33789 23.2562V20.7925L18.9957 22.0269L31.82 20.7925V23.2562L18.9957 25.7617L6.33789 23.2562Z" fill="#B5B9B9"/>
<path d="M31.726 7.60059L31.7188 10.1061L37.8788 11.2621V9.43135L31.726 7.60059Z" fill="#898E93"/>
<path d="M31.7188 12.5693V15.6293H37.8788V13.4481L31.7188 12.5693Z" fill="#898E93"/>
<path d="M31.7188 18.0303L31.726 20.6457L37.8788 20.1121V18.0303H31.7188Z" fill="#898E93"/>
<path d="M31.7266 23.0155L38 21.5928V23.6955L31.7266 25.9081V23.0155Z" fill="#898E93"/>
</g>
<defs>
<clipPath id="clip0_305_18722">
<rect width="38" height="34" fill="white"/>
</clipPath>
</defs>
</svg>
