<svg width="38" height="34" viewBox="0 0 38 34" fill="none" xmlns="http://www.w3.org/2000/svg">
<g clip-path="url(#clip0_305_18721)">
<mask id="mask0_305_18721" style="mask-type:luminance" maskUnits="userSpaceOnUse" x="0" y="0" width="38" height="34">
<path d="M38 0H0V34H38V0Z" fill="white"/>
</mask>
<g mask="url(#mask0_305_18721)">
<path fill-rule="evenodd" clip-rule="evenodd" d="M0.497317 0.38435C0.815742 0.080243 1.23435 -0.0518036 1.6458 0.0202218L19.22 3.10131C19.9141 3.22135 20.4258 3.88959 20.4258 4.67386V32.4037C20.4258 32.8678 20.2433 33.312 19.9284 33.6161C19.6136 33.9202 19.1914 34.0522 18.78 33.9802L1.20572 30.8991C0.511628 30.7791 0 30.1108 0 29.3266V1.59278C0 1.12861 0.182469 0.684456 0.497317 0.38435ZM2.84794 3.45744V27.9621L17.5742 30.543V6.03835L2.85152 3.45744H2.84794Z" fill="#8A8F94"/>
<path fill-rule="evenodd" clip-rule="evenodd" d="M37.5027 0.38435C37.8175 0.688458 38 1.12861 38 1.59678V29.3266C38 30.1108 37.4883 30.7791 36.7943 30.8991L19.22 33.9802C18.8086 34.0522 18.39 33.9202 18.0715 33.6161C17.7567 33.312 17.5742 32.8718 17.5742 32.4037V4.67386C17.5742 3.88959 18.0858 3.22135 18.7799 3.10131L36.3542 0.0202218C36.7656 -0.0518036 37.1842 0.080243 37.5027 0.38435ZM20.4257 6.03835V30.543L35.152 27.9621V3.45744L20.4257 6.03835Z" fill="#8A8F94"/>
<path fill-rule="evenodd" clip-rule="evenodd" d="M1.42383 29.3266L18.9981 32.4076V4.67386L1.42383 1.59277V29.3226V29.3266ZM7.20916 8.1711C6.44708 7.94301 5.66712 8.45119 5.46318 9.29949C5.25925 10.1518 5.71363 11.0241 6.47213 11.2522L14.0929 13.525C14.855 13.7531 15.6349 13.2449 15.8389 12.3966C16.0428 11.5443 15.5884 10.672 14.8299 10.4439L7.20916 8.1711ZM5.46318 14.9735C5.66712 14.1212 6.44708 13.617 7.20916 13.8451L14.8299 16.1179C15.592 16.346 16.0428 17.2183 15.8389 18.0706C15.6349 18.9229 14.855 19.4271 14.0929 19.199L6.47213 16.9262C5.71005 16.6981 5.25925 15.8258 5.46318 14.9735ZM7.20558 19.5391C6.44351 19.315 5.66354 19.8232 5.46318 20.6715C5.26283 21.5238 5.71721 22.3961 6.47571 22.6202L14.0965 24.873C14.8585 25.0971 15.6385 24.5889 15.8389 23.7406C16.0392 22.8883 15.5848 22.016 14.8263 21.7919L7.20558 19.5391Z" fill="#8A8F94"/>
<path fill-rule="evenodd" clip-rule="evenodd" d="M36.5762 29.3266L19.002 32.4076V4.67386L36.5762 1.59277V29.3226V29.3266ZM31.5279 11.2522C32.29 11.0241 32.7408 10.1518 32.5368 9.29949C32.3329 8.44719 31.5529 7.94301 30.7909 8.1711L23.1701 10.4439C22.408 10.672 21.9572 11.5443 22.1612 12.3966C22.3651 13.2489 23.1451 13.7531 23.9071 13.525L31.5279 11.2522ZM32.5368 14.9735C32.7408 15.8258 32.2864 16.6981 31.5279 16.9262L23.9071 19.199C23.1451 19.4271 22.3651 18.9189 22.1612 18.0706C21.9572 17.2183 22.4116 16.346 23.1701 16.1179L30.7909 13.8451C31.5529 13.617 32.3329 14.1252 32.5368 14.9735ZM31.5243 22.6202C32.2864 22.3961 32.7372 21.5238 32.5368 20.6715C32.3365 19.8192 31.5565 19.315 30.7944 19.5391L23.1737 21.7919C22.4116 22.016 21.9572 22.8883 22.1612 23.7406C22.3615 24.5929 23.1415 25.1011 23.9036 24.873L31.5243 22.6202Z" fill="#8A8F94"/>
</g>
</g>
<defs>
<clipPath id="clip0_305_18721">
<rect width="38" height="34" fill="white"/>
</clipPath>
</defs>
</svg>
