<svg width="36" height="38" viewBox="0 0 36 38" fill="none" xmlns="http://www.w3.org/2000/svg">
<path fill-rule="evenodd" clip-rule="evenodd" d="M13.3976 22.6448C13.5946 26.5851 14.2581 31.0022 15.6488 35.8297C12.0222 35.328 8.76112 33.6823 6.24158 31.2687C6.34449 31.1659 6.42084 31.0336 6.45581 30.8806C7.11113 27.9861 7.38532 24.9697 7.43546 22.1039C9.15542 22.3231 11.1627 22.5217 13.3976 22.6448ZM15.0222 22.7187C15.2155 26.6047 15.8744 30.9581 17.2668 35.699C17.2937 35.7915 17.3031 35.8854 17.2968 35.9767C17.53 35.9862 17.7644 35.991 18 35.991C21.8871 35.991 25.4695 34.6864 28.3332 32.4912C28.299 32.4489 28.2684 32.4025 28.2423 32.3522C26.4853 28.8996 25.5763 25.5571 25.2087 22.4718C22.7062 22.6898 20.3119 22.779 18.0688 22.779L18.0742 22.7736C17.0222 22.7736 16.0034 22.754 15.0222 22.7187ZM25.0643 20.8834C21.4163 21.2018 18.0051 21.2408 14.9679 21.1278C14.7537 9.51661 18.6361 2.48136 18.6905 2.38429C18.7582 2.26537 18.7921 2.13669 18.795 2.00928C22.3748 2.17407 25.6656 3.44603 28.333 5.49066C28.3076 5.52243 28.2843 5.5566 28.2635 5.5931C28.052 5.95951 24.5206 12.2404 25.0643 20.8834ZM26.831 22.3136C27.1635 25.1806 27.9854 28.272 29.5724 31.4442C32.4494 28.7695 34.3982 25.1098 34.8823 21.0018C32.126 21.61 29.427 22.0332 26.831 22.3136ZM34.9958 19.3711C34.9274 19.3682 34.8574 19.374 34.7873 19.3896C32.0143 20.0105 29.3006 20.4406 26.6936 20.7239C26.2634 13.183 29.0593 7.49453 29.5671 6.53293C32.909 9.63727 35 14.07 35 18.991C35 19.1181 34.9986 19.2448 34.9958 19.3711ZM13.3422 21.0514C11.1194 20.9253 9.1317 20.7234 7.44099 20.5031C7.37024 13.5948 6.11502 7.91716 6.03613 7.56933C5.99906 7.40458 5.91249 7.26298 5.79531 7.15691C8.68754 4.17468 12.6632 2.24914 17.0873 2.0151C16.2075 3.74438 13.138 10.5519 13.3422 21.0514ZM5.83683 20.2767C5.75292 14.8111 4.92787 10.1278 4.60925 8.51661C2.34802 11.4034 1 15.0398 1 18.991C1 19.1175 1.00138 19.2437 1.00413 19.3696C1.08301 19.3658 1.16377 19.3738 1.24415 19.3949C1.29442 19.4088 2.97378 19.8406 5.83683 20.2767ZM1.1179 21.0037C1.51877 24.4022 2.92213 27.4938 5.02417 29.9746C5.57805 27.3143 5.80546 24.5361 5.83924 21.8839C3.39862 21.5212 1.74349 21.1525 1.1179 21.0037Z" fill="#B5B9B9"/>
</svg>
