<svg width="42" height="36" viewBox="0 0 42 36" fill="none" xmlns="http://www.w3.org/2000/svg">
<g clip-path="url(#clip0_305_18715)">
<path d="M41 29.9804L18.127 35L20.3749 1L41 29.9804Z" stroke="#868B90" stroke-linecap="round" stroke-linejoin="round"/>
<path d="M18.1269 35L1 27.9982L20.3748 1" stroke="#868B90" stroke-linecap="round" stroke-linejoin="round"/>
<path d="M35.1172 21.7168L36.8808 31.195" stroke="#868B90" stroke-linecap="round" stroke-linejoin="round"/>
<path d="M15.9955 7.10059L12.6836 32.7705L18.7527 25.5319L25.4594 33.3883L24.7184 7.10059" stroke="#868B90" stroke-linecap="round" stroke-linejoin="round"/>
<path d="M12.3023 12.2495L9.05664 31.2934L19.1995 18.7622L30.2365 32.3437L28.3818 12.2495" stroke="#868B90" stroke-linecap="round" stroke-linejoin="round"/>
<path d="M8.92418 16.9599L6.35742 30.1862L19.5762 13.0986L33.9459 31.5299L31.818 17.0783" stroke="#868B90" stroke-linecap="round" stroke-linejoin="round"/>
<path d="M5.8429 21.249L4.05859 29.2496L19.8772 8.49121L36.8799 30.8868" stroke="#868B90" stroke-linecap="round" stroke-linejoin="round"/>
<path d="M2.72214 25.5987L2.41992 28.5796L20.1429 4.49023L39.2114 30.3713L38.0357 25.8149" stroke="#868B90" stroke-linecap="round" stroke-linejoin="round"/>
</g>
<defs>
<clipPath id="clip0_305_18715">
<rect width="42.0003" height="36" fill="white"/>
</clipPath>
</defs>
</svg>
