<svg width="34" height="34" viewBox="0 0 34 34" fill="none" xmlns="http://www.w3.org/2000/svg">
<g clip-path="url(#clip0_305_18714)">
<path d="M17 34C26.3888 34 34 26.3888 34 17C34 7.61116 26.3888 0 17 0C7.61116 0 0 7.61116 0 17C0 26.3888 7.61116 34 17 34Z" fill="#B5B9B9"/>
<path d="M17.2066 29.6461C24.0765 29.6461 29.6456 24.077 29.6456 17.2071C29.6456 10.3372 24.0765 4.76807 17.2066 4.76807C10.3367 4.76807 4.76758 10.3372 4.76758 17.2071C4.76758 24.077 10.3367 29.6461 17.2066 29.6461Z" fill="white"/>
<path d="M16.1203 24.4052C15.1127 24.314 14.2627 24.0818 13.5744 23.7086C12.8861 23.3354 12.2891 22.8711 11.7832 22.3154L13.5744 20.6818C13.96 21.0798 14.383 21.4074 14.8474 21.6686C15.3117 21.9298 15.8217 22.0957 16.3815 22.1745V18.592C14.8805 18.2852 13.8066 17.8084 13.1556 17.1574C12.5047 16.5064 12.1813 15.6979 12.1813 14.7276C12.1813 13.6786 12.5171 12.8245 13.1847 12.1611C13.8564 11.4976 14.8349 11.0913 16.1203 10.9462V9.07617H18.3883V10.9462C19.1844 11.0374 19.881 11.2364 20.4781 11.535C21.0752 11.8335 21.5934 12.2357 22.0288 12.7374L20.2169 14.3711C19.9764 14.1057 19.6944 13.8652 19.3627 13.6537C19.031 13.4423 18.6247 13.2806 18.1478 13.1769V16.4815C19.5534 16.8008 20.5942 17.2569 21.2617 17.854C21.9334 18.4511 22.2652 19.2596 22.2652 20.2837C22.2652 21.3079 21.95 22.1289 21.3198 22.8711C20.6895 23.6132 19.711 24.0984 18.3842 24.3223V26.2337H16.1161V24.4011L16.1203 24.4052ZM14.9261 14.653C14.9261 15.0386 15.0422 15.3371 15.2744 15.5486C15.5066 15.7601 15.8756 15.9384 16.3773 16.0876V13.1437C15.8715 13.2515 15.5066 13.434 15.2744 13.6911C15.0422 13.9481 14.9261 14.2715 14.9261 14.6571V14.653ZM19.5244 20.5035C19.5244 20.2132 19.4374 19.9313 19.2674 19.6576C19.0932 19.384 18.7242 19.1642 18.152 18.9901V22.133C18.6164 22.0003 18.9605 21.793 19.1886 21.5069C19.4125 21.2208 19.5286 20.885 19.5286 20.5035H19.5244Z" fill="#888D92"/>
</g>
<defs>
<clipPath id="clip0_305_18714">
<rect width="34" height="34" fill="white"/>
</clipPath>
</defs>
</svg>
