<svg width="34" height="34" viewBox="0 0 34 34" fill="none" xmlns="http://www.w3.org/2000/svg">
<g clip-path="url(#clip0_305_18713)">
<path d="M5.00586 11.3049V6.32702C5.00586 6.32702 5.53612 3.83808 14.5321 2.45405C14.5321 2.45405 18.7445 1.56625 24.5775 1.31813C24.5775 1.31813 32.0345 0.864538 33.9999 0V33.8992H5.00586V11.9601" fill="#8A8F94"/>
<path d="M18.1996 19.0277V11.5415H1.4573C0.652634 11.5415 0 12.2238 0 13.0651V32.4765C0 33.3178 0.652634 34.0001 1.4573 34.0001H25.0967C25.9014 34.0001 26.554 33.3178 26.554 32.4765V19.0277H18.1996Z" fill="#B5B9B9"/>
<path d="M14.606 13.0996H12.014C10.988 13.0996 10.1562 13.9692 10.1562 15.0419V16.1042C10.1562 17.1769 10.988 18.0465 12.014 18.0465H14.606C15.6321 18.0465 16.4638 17.1769 16.4638 16.1042V15.0419C16.4638 13.9692 15.6321 13.0996 14.606 13.0996Z" fill="white"/>
<path d="M6.25251 13.0996H3.66052C2.63449 13.0996 1.80273 13.9692 1.80273 15.0419V16.1042C1.80273 17.1769 2.63449 18.0465 3.66052 18.0465H6.25251C7.27853 18.0465 8.11029 17.1769 8.11029 16.1042V15.0419C8.11029 13.9692 7.27853 13.0996 6.25251 13.0996Z" fill="white"/>
<path d="M14.606 20.2759H12.014C10.988 20.2759 10.1562 21.1455 10.1562 22.2182V23.2804C10.1562 24.3531 10.988 25.2227 12.014 25.2227H14.606C15.6321 25.2227 16.4638 24.3531 16.4638 23.2804V22.2182C16.4638 21.1455 15.6321 20.2759 14.606 20.2759Z" fill="white"/>
<path d="M6.25251 20.2759H3.66052C2.63449 20.2759 1.80273 21.1455 1.80273 22.2182V23.2804C1.80273 24.3531 2.63449 25.2227 3.66052 25.2227H6.25251C7.27853 25.2227 8.11029 24.3531 8.11029 23.2804V22.2182C8.11029 21.1455 7.27853 20.2759 6.25251 20.2759Z" fill="white"/>
<path d="M14.606 27.4482H12.014C10.988 27.4482 10.1562 28.3178 10.1562 29.3905V30.4528C10.1562 31.5255 10.988 32.3951 12.014 32.3951H14.606C15.6321 32.3951 16.4638 31.5255 16.4638 30.4528V29.3905C16.4638 28.3178 15.6321 27.4482 14.606 27.4482Z" fill="white"/>
<path d="M6.25251 27.4482H3.66052C2.63449 27.4482 1.80273 28.3178 1.80273 29.3905V30.4528C1.80273 31.5255 2.63449 32.3951 3.66052 32.3951H6.25251C7.27853 32.3951 8.11029 31.5255 8.11029 30.4528V29.3905C8.11029 28.3178 7.27853 27.4482 6.25251 27.4482Z" fill="white"/>
<path d="M22.9615 27.4482H20.3695C19.3435 27.4482 18.5117 28.3178 18.5117 29.3905V30.4528C18.5117 31.5255 19.3435 32.3951 20.3695 32.3951H22.9615C23.9875 32.3951 24.8193 31.5255 24.8193 30.4528V29.3905C24.8193 28.3178 23.9875 27.4482 22.9615 27.4482Z" fill="white"/>
<path d="M22.9615 20.2759H20.3695C19.3435 20.2759 18.5117 21.1455 18.5117 22.2182V23.2804C18.5117 24.3531 19.3435 25.2227 20.3695 25.2227H22.9615C23.9875 25.2227 24.8193 24.3531 24.8193 23.2804V22.2182C24.8193 21.1455 23.9875 20.2759 22.9615 20.2759Z" fill="white"/>
</g>
<defs>
<clipPath id="clip0_305_18713">
<rect width="34" height="34" fill="white"/>
</clipPath>
</defs>
</svg>
