<svg width="34" height="38" viewBox="0 0 34 38" fill="none" xmlns="http://www.w3.org/2000/svg">
<g clip-path="url(#clip0_305_18717)">
<path d="M0.604091 8.1582L0 11.7748H22.5222L21.7552 8.1582H0.604091Z" fill="#898E93"/>
<path d="M1.16927 8.15808C1.16927 8.15808 0.906964 1.52501 7.83811 0.320801C7.83811 0.320801 10.8904 2.1291 14.7891 0.320801C14.7891 0.320801 20.9572 0.924891 21.3308 8.15808H1.16927Z" fill="#B5B9B9"/>
<path d="M1.16406 11.7749L3.76722 36.0419H4.35938V37.6793H18.2376V36.0617H18.8377L21.3296 11.7749H1.16406Z" fill="#B5B9B9"/>
<path d="M3.16406 21.5713L4.67429 35.1355H5.05582V36.6418H17.5231V35.2667H17.9365L19.4189 21.5713H3.16406Z" fill="white"/>
<path d="M29.8791 12.6848C32.1553 12.6848 34.0005 10.0318 34.0005 6.75915C34.0005 3.4865 32.1553 0.833496 29.8791 0.833496C27.603 0.833496 25.7578 3.4865 25.7578 6.75915C25.7578 10.0318 27.603 12.6848 29.8791 12.6848Z" fill="#B5B9B9" stroke="#B5B9B9" stroke-miterlimit="10"/>
<path d="M29.8789 10.9204V36.7652" stroke="#B5B9B9" stroke-width="4" stroke-miterlimit="10" stroke-linecap="round"/>
</g>
<defs>
<clipPath id="clip0_305_18717">
<rect width="34" height="37.3583" fill="white" transform="translate(0 0.320801)"/>
</clipPath>
</defs>
</svg>
