<svg width="48" height="48" viewBox="0 0 48 48" fill="none" xmlns="http://www.w3.org/2000/svg">
<g clip-path="url(#clip0_611_50681)">
<path d="M27.2687 19.1249C26.0312 19.1249 25.0722 20.0838 25.0722 21.2677C25.0722 22.4517 26.0312 23.4106 27.2687 23.4106C28.399 23.4106 29.3579 22.4517 29.3579 21.2677C29.3579 20.0838 28.399 19.1249 27.2687 19.1249ZM12.2687 19.1249C11.0312 19.1249 10.0722 20.0838 10.0722 21.2677C10.0722 22.4517 11.0312 23.4106 12.2687 23.4106C13.399 23.4106 14.3579 22.4517 14.3579 21.2677C14.3579 20.0838 13.399 19.1249 12.2687 19.1249Z" fill="#505458"/>
<path d="M44.4636 15.0493C41.985 11.6375 38.4111 9.17929 34.3386 8.08499V8.09034C33.4225 7.07249 32.3886 6.13499 31.2314 5.29927C22.4618 -1.07573 10.1511 0.868915 3.74929 9.63856C-1.40964 16.7636 -1.19 26.3475 4.07071 33.1564L4.11357 40.26C4.11357 40.4314 4.14036 40.6028 4.19393 40.7636C4.26131 40.9782 4.37036 41.1775 4.51483 41.35C4.6593 41.5225 4.83637 41.6648 5.03589 41.7688C5.23542 41.8728 5.45349 41.9364 5.67763 41.956C5.90177 41.9757 6.12758 41.9509 6.34214 41.8832L13.1243 39.7457C14.9189 40.3832 16.7725 40.7475 18.6154 40.8493L18.5886 40.8707C23.3618 44.3475 29.6189 45.3921 35.3564 43.4957L42.1654 45.7136C42.3368 45.7671 42.5136 45.7993 42.6957 45.7993C43.6439 45.7993 44.41 45.0332 44.41 44.085V36.9064C49.1296 30.4993 49.2529 21.6439 44.4636 15.0493ZM13.8743 35.9421L13.2314 35.6743L7.92786 37.335L7.87429 31.7636L7.44571 31.2814C2.91357 25.7528 2.61357 17.7868 6.85643 11.9421C12.0207 4.85999 21.9207 3.2957 28.9814 8.40641C36.0636 13.5546 37.6332 23.4386 32.5171 30.4778C28.2261 36.3653 20.5439 38.5403 13.8743 35.9421ZM40.9279 35.0314L40.4993 35.5671L40.5529 41.1386L35.3029 39.3707L34.66 39.6386C31.66 40.7528 28.4618 40.8439 25.4993 40.0136L25.4886 40.0082C29.5602 38.7596 33.1168 36.2237 35.6243 32.7814C39.7171 27.1403 40.3814 20.0528 38.0029 14.01L38.035 14.0314C39.2671 14.9153 40.3975 16.0189 41.3564 17.3528C45.2457 22.6886 45.0261 29.9528 40.9279 35.0314Z" fill="#505458"/>
<path d="M19.7687 19.1249C18.5312 19.1249 17.5722 20.0838 17.5722 21.2677C17.5722 22.4517 18.5312 23.4106 19.7687 23.4106C20.899 23.4106 21.8579 22.4517 21.8579 21.2677C21.8579 20.0838 20.899 19.1249 19.7687 19.1249Z" fill="#505458"/>
</g>
<defs>
<clipPath id="clip0_611_50681">
<rect width="48" height="48" fill="white"/>
</clipPath>
</defs>
</svg>
