<svg width="48" height="50" viewBox="0 0 48 50" fill="none" xmlns="http://www.w3.org/2000/svg">
<path d="M40.726 36.074C39.3851 34.732 37.8183 33.6367 36.0974 32.8383C38.5242 30.8722 40.0724 27.8722 40.0724 24.508C40.0724 18.5722 35.1224 13.7026 29.1867 13.7937C23.342 13.8847 18.6331 18.6472 18.6331 24.508C18.6331 27.8722 20.1867 30.8722 22.6081 32.8383C20.8869 33.6362 19.32 34.7315 17.9795 36.074C15.0545 39.0044 13.3938 42.8722 13.2867 46.9972C13.2853 47.0544 13.2953 47.1113 13.3162 47.1645C13.3371 47.2178 13.3684 47.2663 13.4084 47.3072C13.4483 47.3482 13.496 47.3807 13.5487 47.4029C13.6014 47.4251 13.6581 47.4365 13.7153 47.4365H16.7153C16.9456 47.4365 17.1385 47.2544 17.1438 47.024C17.2456 43.9169 18.5045 41.008 20.717 38.8008C21.8492 37.6626 23.1959 36.7603 24.6791 36.146C26.1624 35.5317 27.7527 35.2178 29.3581 35.2222C32.6206 35.2222 35.6903 36.4919 37.9992 38.8008C40.2063 41.008 41.4653 43.9169 41.5724 47.024C41.5778 47.2544 41.7706 47.4365 42.001 47.4365H45.001C45.0582 47.4365 45.1148 47.4251 45.1675 47.4029C45.2202 47.3807 45.2679 47.3482 45.3079 47.3072C45.3478 47.2663 45.3792 47.2178 45.4 47.1645C45.4209 47.1113 45.431 47.0544 45.4295 46.9972C45.3224 42.8722 43.6617 39.0044 40.726 36.074ZM29.3581 31.3651C27.526 31.3651 25.801 30.6526 24.5099 29.3562C23.862 28.7133 23.3502 27.9466 23.005 27.1017C22.6599 26.2567 22.4884 25.3509 22.501 24.4383C22.517 22.6812 23.2188 20.983 24.4456 19.724C25.7313 18.4062 27.451 17.6722 29.2885 17.6508C31.1045 17.6347 32.867 18.3419 34.1635 19.6115C35.492 20.9133 36.2206 22.6544 36.2206 24.508C36.2206 26.3401 35.5081 28.0597 34.2117 29.3562C33.5756 29.9953 32.8192 30.5019 31.9861 30.8467C31.153 31.1915 30.2598 31.3677 29.3581 31.3651ZM15.9385 25.9222C15.8903 25.4562 15.8635 24.9847 15.8635 24.508C15.8635 23.6562 15.9438 22.8258 16.0938 22.0169C16.1313 21.824 16.0295 21.6258 15.8528 21.5455C15.1242 21.2187 14.4545 20.7687 13.876 20.2008C13.1942 19.5398 12.6577 18.7439 12.3008 17.8639C11.9438 16.984 11.7742 16.0393 11.8028 15.0901C11.851 13.3705 12.542 11.7365 13.7474 10.5044C15.0706 9.14903 16.8492 8.40974 18.7403 8.43117C20.4492 8.44724 22.0992 9.10617 23.3474 10.274C23.7706 10.6705 24.1349 11.1097 24.4403 11.5812C24.5474 11.7472 24.7563 11.8169 24.9385 11.7526C25.8813 11.4258 26.8778 11.1955 27.901 11.0883C28.201 11.0562 28.3724 10.7347 28.2385 10.4669C26.4974 7.02224 22.9403 4.64367 18.826 4.57938C12.8849 4.48831 7.9349 9.35795 7.9349 15.2883C7.9349 18.6526 9.48311 21.6526 11.9099 23.6187C10.2063 24.4062 8.63669 25.4937 7.27597 26.8544C4.34026 29.7847 2.67954 33.6526 2.5724 37.783C2.57097 37.8401 2.581 37.897 2.6019 37.9503C2.62279 38.0035 2.65413 38.052 2.69407 38.093C2.73401 38.1339 2.78174 38.1664 2.83445 38.1886C2.88716 38.2108 2.94378 38.2223 3.00097 38.2222H6.00633C6.23669 38.2222 6.42954 38.0401 6.4349 37.8097C6.53669 34.7026 7.79561 31.7937 10.0081 29.5865C11.5831 28.0115 13.5117 26.9187 15.617 26.3883C15.826 26.3347 15.9653 26.1365 15.9385 25.9222Z" fill="#505458"/>
<path d="M41.2865 1.02832C41.168 1.02832 41.0474 1.06046 40.9369 1.13479L33.8153 5.78948H30.5206C30.3439 5.78948 30.1992 5.93412 30.1992 6.11091V11.8966C30.1992 12.0734 30.3439 12.2181 30.5206 12.2181H33.8153L40.9369 16.8727C41.0474 16.9451 41.17 16.9792 41.2865 16.9792C41.622 16.9792 41.9314 16.712 41.9314 16.3343V1.67319C41.9314 1.29551 41.622 1.02832 41.2865 1.02832ZM40.4849 14.8497L34.6068 11.0067L34.2452 10.7716H31.6456V7.23591H34.2452L34.6048 7.00086L40.4849 3.15778V14.8497ZM47.476 8.28055H44.9046C44.7278 8.28055 44.5831 8.4252 44.5831 8.60198V9.40555C44.5831 9.58234 44.7278 9.72698 44.9046 9.72698H47.476C47.6528 9.72698 47.7974 9.58234 47.7974 9.40555V8.60198C47.7974 8.4252 47.6528 8.28055 47.476 8.28055ZM46.6343 13.5399L44.4184 12.2602C44.382 12.2394 44.3419 12.2259 44.3002 12.2206C44.2586 12.2153 44.2164 12.2182 44.1759 12.2292C44.1354 12.2402 44.0975 12.2591 44.0643 12.2847C44.0311 12.3104 44.0033 12.3424 43.9825 12.3788L43.5827 13.0718C43.4943 13.2245 43.5465 13.4214 43.6992 13.5098L45.9151 14.7895C45.9515 14.8103 45.9916 14.8238 46.0332 14.8291C46.0749 14.8344 46.1171 14.8315 46.1576 14.8205C46.1981 14.8095 46.236 14.7906 46.2692 14.765C46.3024 14.7393 46.3302 14.7074 46.351 14.671L46.7508 13.9779C46.8392 13.8252 46.7849 13.6283 46.6343 13.5399ZM43.9805 5.62877C44.0013 5.66518 44.0291 5.69712 44.0623 5.72279C44.0955 5.74845 44.1334 5.76732 44.1739 5.77833C44.2144 5.78933 44.2566 5.79226 44.2982 5.78693C44.3398 5.78161 44.38 5.76814 44.4164 5.74729L46.6323 4.46761C46.7849 4.37921 46.8372 4.18234 46.7488 4.02966L46.351 3.33859C46.3302 3.30218 46.3024 3.27023 46.2692 3.24457C46.236 3.21891 46.1981 3.20004 46.1576 3.18903C46.1171 3.17802 46.0749 3.1751 46.0332 3.18042C45.9916 3.18575 45.9515 3.19922 45.9151 3.22006L43.6992 4.49975C43.6259 4.54252 43.5724 4.6126 43.5506 4.69467C43.5287 4.77674 43.5403 4.86412 43.5827 4.9377L43.9805 5.62877Z" fill="#816DEC"/>
</svg>
