<svg width="48" height="48" viewBox="0 0 48 48" fill="none" xmlns="http://www.w3.org/2000/svg">
<path d="M12.8906 13.1719C13.8234 13.1719 14.5781 12.4172 14.5781 11.4844V1.6875C14.5781 0.754688 13.8234 0 12.8906 0C11.9578 0 11.2031 0.754688 11.2031 1.6875V11.4844C11.2031 12.4172 11.9578 13.1719 12.8906 13.1719ZM41.625 19.9219H36C36 18.0563 34.4906 16.5469 32.625 16.5469H9.375C7.50938 16.5469 6 18.0563 6 19.9219V31.5469C6 31.7063 6.00937 31.8609 6.03281 32.0109C6.00937 32.3391 6 32.6672 6 33C6 41.2828 12.7172 48 21 48C28.5047 48 34.7203 42.4922 35.8266 35.2969H41.625C43.4906 35.2969 45 33.7875 45 31.9219V23.2969C45 21.4313 43.4906 19.9219 41.625 19.9219ZM32.625 31.9219H32.5734C32.6063 32.2781 32.625 32.6344 32.625 33C32.625 39.4219 27.4219 44.625 21 44.625C14.5781 44.625 9.375 39.4219 9.375 33C9.375 32.6344 9.39375 32.2781 9.42656 31.9219H9.375V19.9219H32.625V31.9219ZM41.625 31.5469H36.375V23.2969H41.625V31.5469ZM28.7344 13.1719C29.6672 13.1719 30.4219 12.4172 30.4219 11.4844V1.6875C30.4219 0.754688 29.6672 0 28.7344 0C27.8016 0 27.0469 0.754688 27.0469 1.6875V11.4844C27.0469 12.4172 27.8016 13.1719 28.7344 13.1719ZM20.7656 13.1719C21.6984 13.1719 22.4531 12.4172 22.4531 11.4844V1.6875C22.4531 0.754688 21.6984 0 20.7656 0C19.8328 0 19.0781 0.754688 19.0781 1.6875V11.4844C19.0781 12.4172 19.8328 13.1719 20.7656 13.1719Z" fill="#505458"/>
</svg>
