<svg width="48" height="48" viewBox="0 0 48 48" fill="none" xmlns="http://www.w3.org/2000/svg">
<g clip-path="url(#clip0_611_50688)">
<path d="M19.5 16.1719C19.5 16.4276 19.6016 16.6729 19.7824 16.8537C19.9633 17.0346 20.2085 17.1362 20.4643 17.1362C20.72 17.1362 20.9653 17.0346 21.1461 16.8537C21.327 16.6729 21.4286 16.4276 21.4286 16.1719C21.4286 15.9161 21.327 15.6709 21.1461 15.49C20.9653 15.3092 20.72 15.2076 20.4643 15.2076C20.2085 15.2076 19.9633 15.3092 19.7824 15.49C19.6016 15.6709 19.5 15.9161 19.5 16.1719ZM26.5714 16.1719C26.5714 16.4276 26.673 16.6729 26.8539 16.8537C27.0347 17.0346 27.28 17.1362 27.5357 17.1362C27.7915 17.1362 28.0367 17.0346 28.2176 16.8537C28.3984 16.6729 28.5 16.4276 28.5 16.1719C28.5 15.9161 28.3984 15.6709 28.2176 15.49C28.0367 15.3092 27.7915 15.2076 27.5357 15.2076C27.28 15.2076 27.0347 15.3092 26.8539 15.49C26.673 15.6709 26.5714 15.9161 26.5714 16.1719ZM24 9C19.0299 9 15 13.0299 15 18C15 22.9701 19.0299 27 24 27C28.9701 27 33 22.9701 33 18C33 13.0299 28.9701 9 24 9ZM29.2835 23.2835C28.5964 23.9705 27.7969 24.5089 26.9069 24.8866C25.9888 25.2763 25.0105 25.4732 24 25.4732C22.9895 25.4732 22.0112 25.2763 21.0911 24.8866C20.2025 24.5113 19.3953 23.9668 18.7145 23.2835C18.0275 22.5964 17.4891 21.7969 17.1114 20.9069C16.7237 19.9888 16.5268 19.0105 16.5268 18C16.5268 16.9895 16.7237 16.0112 17.1134 15.0911C17.4887 14.2025 18.0332 13.3953 18.7165 12.7145C19.4036 12.0275 20.2031 11.4891 21.0931 11.1114C22.0112 10.7237 22.9895 10.5268 24 10.5268C25.0105 10.5268 25.9888 10.7237 26.9089 11.1134C27.7975 11.4887 28.6047 12.0332 29.2855 12.7165C29.9725 13.4036 30.5109 14.2031 30.8886 15.0931C31.2763 16.0112 31.4732 16.9895 31.4732 18C31.4732 19.0105 31.2763 19.9888 30.8866 20.9089C30.5118 21.7972 29.9672 22.6038 29.2835 23.2835ZM24 18.4219C22.2824 18.4219 20.8741 19.7739 20.7857 21.4674C20.7846 21.4892 20.788 21.5109 20.7956 21.5314C20.8031 21.5518 20.8148 21.5705 20.8298 21.5863C20.8449 21.6021 20.863 21.6146 20.883 21.6232C20.9031 21.6318 20.9246 21.6362 20.9464 21.6362H21.9127C21.9971 21.6362 22.0694 21.5719 22.0754 21.4875C22.1518 20.4931 22.9855 19.7076 24 19.7076C25.0145 19.7076 25.8502 20.4931 25.9246 21.4875C25.9306 21.5719 26.0029 21.6362 26.0873 21.6362H27.0536C27.0754 21.6362 27.0969 21.6318 27.117 21.6232C27.137 21.6146 27.1551 21.6021 27.1702 21.5863C27.1852 21.5705 27.1969 21.5518 27.2044 21.5314C27.212 21.5109 27.2154 21.4892 27.2143 21.4674C27.1259 19.7739 25.7176 18.4219 24 18.4219Z" fill="#816DEC"/>
</g>
<path d="M47.8333 41.8547L44.5922 30.4386V5.58147C44.5922 4.63326 43.8262 3.86719 42.878 3.86719H5.16368C4.21546 3.86719 3.44939 4.63326 3.44939 5.58147V30.4386L0.208319 41.8547C-0.193467 42.9743 0.631533 44.1529 1.82082 44.1529H46.2208C47.4101 44.1529 48.2351 42.9743 47.8333 41.8547ZM7.30653 7.72433H40.7351V28.885H7.30653V7.72433ZM19.5369 40.2958L19.9708 38.3136H28.0226L28.4565 40.2958H19.5369ZM31.5369 40.2958L30.5137 35.6511C30.4708 35.4529 30.294 35.3136 30.0958 35.3136H17.903C17.6994 35.3136 17.528 35.4529 17.4851 35.6511L16.4619 40.2958H4.6601L6.92618 32.3136H41.1155L43.3815 40.2958H31.5369Z" fill="#505458"/>
<defs>
<clipPath id="clip0_611_50688">
<rect width="18" height="18" fill="white" transform="translate(15 9)"/>
</clipPath>
</defs>
</svg>
