<svg width="57" height="48" viewBox="0 0 57 48" fill="none" xmlns="http://www.w3.org/2000/svg">
<path d="M52.7151 6.43527H43.7151V3.0067C43.7151 2.77098 43.5223 2.57812 43.2866 2.57812H40.2866C40.0508 2.57812 39.858 2.77098 39.858 3.0067V6.43527H26.1437V3.0067C26.1437 2.77098 25.9508 2.57812 25.7151 2.57812H22.7151C22.4794 2.57812 22.2866 2.77098 22.2866 3.0067V6.43527H13.2866C12.3383 6.43527 11.5723 7.20134 11.5723 8.14955V43.721C11.5723 44.6692 12.3383 45.4353 13.2866 45.4353H52.7151C53.6633 45.4353 54.4294 44.6692 54.4294 43.721V8.14955C54.4294 7.20134 53.6633 6.43527 52.7151 6.43527ZM50.5723 41.5781H15.4294V21.221H50.5723V41.5781ZM15.4294 17.5781V10.2924H22.2866V12.8638C22.2866 13.0996 22.4794 13.2924 22.7151 13.2924H25.7151C25.9508 13.2924 26.1437 13.0996 26.1437 12.8638V10.2924H39.858V12.8638C39.858 13.0996 40.0508 13.2924 40.2866 13.2924H43.2866C43.5223 13.2924 43.7151 13.0996 43.7151 12.8638V10.2924H50.5723V17.5781H15.4294Z" fill="#505458"/>
<path d="M17.1426 24.9314H15.6247V19.9314C15.6247 18.3532 14.3457 17.0742 12.7676 17.0742H7.23186C5.65374 17.0742 4.37472 18.3532 4.37472 19.9314V24.9314H2.85686C2.46177 24.9314 2.14258 25.2506 2.14258 25.6456V34.2171C2.14258 34.6122 2.46177 34.9314 2.85686 34.9314H17.1426C17.5377 34.9314 17.8569 34.6122 17.8569 34.2171V25.6456C17.8569 25.2506 17.5377 24.9314 17.1426 24.9314ZM5.98186 19.9314C5.98186 19.2416 6.54213 18.6814 7.23186 18.6814H12.7676C13.4573 18.6814 14.0176 19.2416 14.0176 19.9314V24.9314H5.98186V19.9314ZM16.2497 33.3242H3.74972V26.5385H16.2497V33.3242ZM9.37472 30.2215V31.4046C9.37472 31.5028 9.45508 31.5831 9.55329 31.5831H10.4462C10.5444 31.5831 10.6247 31.5028 10.6247 31.4046V30.2215C10.809 30.0893 10.9465 29.9019 11.0175 29.6865C11.0885 29.4711 11.0893 29.2387 11.0199 29.0227C10.9504 28.8068 10.8142 28.6185 10.6308 28.4849C10.4475 28.3513 10.2265 28.2794 9.99972 28.2794C9.77289 28.2794 9.55192 28.3513 9.3686 28.4849C9.18528 28.6185 9.04907 28.8068 8.97959 29.0227C8.91011 29.2387 8.91092 29.4711 8.98193 29.6865C9.05294 29.9019 9.19047 30.0893 9.37472 30.2215Z" fill="#816DEC"/>
</svg>
