<svg width="48" height="48" viewBox="0 0 48 48" fill="none" xmlns="http://www.w3.org/2000/svg">
<path d="M43.7151 6.43527H34.7151V3.0067C34.7151 2.77098 34.5223 2.57812 34.2866 2.57812H31.2866C31.0508 2.57812 30.858 2.77098 30.858 3.0067V6.43527H17.1437V3.0067C17.1437 2.77098 16.9508 2.57812 16.7151 2.57812H13.7151C13.4794 2.57812 13.2866 2.77098 13.2866 3.0067V6.43527H4.28655C3.33834 6.43527 2.57227 7.20134 2.57227 8.14955V43.721C2.57227 44.6692 3.33834 45.4353 4.28655 45.4353H43.7151C44.6633 45.4353 45.4294 44.6692 45.4294 43.721V8.14955C45.4294 7.20134 44.6633 6.43527 43.7151 6.43527ZM41.5723 41.5781H6.42941V21.221H41.5723V41.5781ZM6.42941 17.5781V10.2924H13.2866V12.8638C13.2866 13.0996 13.4794 13.2924 13.7151 13.2924H16.7151C16.9508 13.2924 17.1437 13.0996 17.1437 12.8638V10.2924H30.858V12.8638C30.858 13.0996 31.0508 13.2924 31.2866 13.2924H34.2866C34.5223 13.2924 34.7151 13.0996 34.7151 12.8638V10.2924H41.5723V17.5781H6.42941Z" fill="#505458"/>
</svg>
