<svg width="48" height="48" viewBox="0 0 48 48" fill="none" xmlns="http://www.w3.org/2000/svg">
<path d="M10.3757 36.8521C10.4828 36.8521 10.59 36.8414 10.6971 36.8253L19.7078 35.245C19.815 35.2236 19.9167 35.1753 19.9917 35.095L42.7007 12.386C42.7503 12.3365 42.7897 12.2776 42.8166 12.2128C42.8435 12.148 42.8573 12.0785 42.8573 12.0084C42.8573 11.9382 42.8435 11.8687 42.8166 11.8039C42.7897 11.7391 42.7503 11.6803 42.7007 11.6307L33.7971 2.72176C33.6953 2.61998 33.5614 2.56641 33.4167 2.56641C33.2721 2.56641 33.1382 2.61998 33.0364 2.72176L10.3275 25.4307C10.2471 25.5111 10.1989 25.6075 10.1775 25.7146L8.5971 34.7253C8.54498 35.0123 8.56361 35.3077 8.65135 35.5859C8.7391 35.864 8.89332 36.1166 9.10067 36.3218C9.45424 36.6646 9.89889 36.8521 10.3757 36.8521ZM13.9864 27.5093L33.4167 8.08426L37.3435 12.011L17.9132 31.4361L13.1507 32.2771L13.9864 27.5093ZM43.7132 41.3521H4.2846C3.33638 41.3521 2.57031 42.1182 2.57031 43.0664V44.995C2.57031 45.2307 2.76317 45.4236 2.99888 45.4236H44.9989C45.2346 45.4236 45.4275 45.2307 45.4275 44.995V43.0664C45.4275 42.1182 44.6614 41.3521 43.7132 41.3521Z" fill="#505458"/>
<path d="M15.4699 8.14292C15.0799 7.26513 14.513 6.47727 13.8045 5.82863L13.2199 5.29225C13.2001 5.27453 13.1762 5.26196 13.1503 5.25564C13.1245 5.24932 13.0975 5.24943 13.0717 5.25598C13.0459 5.26252 13.0222 5.2753 13.0025 5.29318C12.9828 5.31106 12.9678 5.33351 12.9588 5.35854L12.6976 6.10787C12.5349 6.57796 12.2355 7.0581 11.8117 7.53019C11.7835 7.56033 11.7514 7.56836 11.7293 7.57037C11.7072 7.57238 11.673 7.56836 11.6429 7.54024C11.6148 7.51613 11.6007 7.47997 11.6027 7.44381C11.6771 6.23443 11.3155 4.87037 10.5239 3.38577C9.86903 2.15229 8.95899 1.19002 7.82193 0.519033L6.99224 0.0308635C6.88376 -0.0334223 6.74515 0.0509527 6.75117 0.177515L6.79537 1.1418C6.8255 1.80073 6.74916 2.38332 6.56836 2.86747C6.34738 3.4601 6.02997 4.01055 5.62416 4.50475C5.34175 4.8482 5.02167 5.15885 4.66992 5.43086C3.82277 6.08209 3.13392 6.91653 2.65497 7.87171C2.17719 8.83522 1.92832 9.89603 1.92773 10.9715C1.92773 11.9197 2.11456 12.8378 2.48421 13.7036C2.84113 14.5373 3.3562 15.2938 4.00095 15.9315C4.65184 16.5744 5.4072 17.0806 6.24894 17.4322C7.12082 17.7978 8.04492 17.9826 8.99916 17.9826C9.95341 17.9826 10.8775 17.7978 11.7494 17.4342C12.5891 17.0847 13.3526 16.575 13.9974 15.9335C14.6483 15.2907 15.1585 14.5393 15.5141 13.7056C15.8832 12.8422 16.0725 11.9125 16.0706 10.9735C16.0706 9.99314 15.8697 9.04091 15.4699 8.14292ZM13.0371 14.9592C11.9583 16.028 10.526 16.6146 8.99916 16.6146C7.47238 16.6146 6.04001 16.028 4.96122 14.9592C3.88644 13.8925 3.29381 12.4782 3.29381 10.9735C3.29381 10.0996 3.49068 9.26189 3.8784 8.48243C4.25608 7.72104 4.81858 7.04002 5.50162 6.51569C5.93723 6.18259 6.33233 5.79962 6.67885 5.37461C7.18108 4.76189 7.57483 4.07885 7.84805 3.3456C7.96012 3.04313 8.04155 2.73018 8.09113 2.41144C8.57528 2.85743 8.98108 3.39582 9.32059 4.02662C9.99158 5.28421 10.301 6.40318 10.2407 7.35542C10.2263 7.57969 10.2629 7.8043 10.3478 8.01238C10.4327 8.22045 10.5637 8.40658 10.7309 8.55676C10.8757 8.68763 11.0452 8.78841 11.2293 8.85325C11.4135 8.91808 11.6087 8.94568 11.8036 8.93443C12.1994 8.91435 12.563 8.73957 12.8282 8.44426C13.0954 8.14493 13.3264 7.83957 13.5193 7.52818C13.8005 7.88778 14.0355 8.27952 14.2224 8.7014C14.5418 9.4206 14.7045 10.186 14.7045 10.9735C14.7045 12.4782 14.1119 13.8945 13.0371 14.9592Z" fill="#816DEC"/>
</svg>
