<svg width="43" height="43" viewBox="0 0 43 43" fill="none" xmlns="http://www.w3.org/2000/svg">
<g clip-path="url(#clip0_611_50619)">
<path d="M39.4117 22.2216L39.4117 20.2139C39.4117 20.1382 39.3809 20.0742 39.3312 20.0245C39.2814 19.9748 39.2151 19.9464 39.1418 19.944L35.5384 19.944C35.2858 18.6301 34.644 17.4225 33.6964 16.4779C32.4842 15.2658 30.8104 14.5152 28.9589 14.5152L24.1339 14.5152C24.063 14.5156 23.9952 14.5439 23.9451 14.594C23.895 14.6441 23.8667 14.7119 23.8664 14.7828L23.8664 27.648C23.8664 27.7238 23.8971 27.7877 23.9469 27.8374C23.9942 27.8848 24.0629 27.9155 24.1363 27.9179L28.9613 27.9179C32.2262 27.9155 34.9441 25.5811 35.5384 22.4915L39.1418 22.4915C39.2909 22.4891 39.4117 22.3684 39.4117 22.2216ZM28.9589 25.638H26.1463V16.7928L28.9589 16.7928C30.138 16.7928 31.2507 17.2521 32.0865 18.0879C32.9222 18.9236 33.3815 20.0316 33.3815 21.2154C33.3815 22.3944 32.9222 23.5072 32.0865 24.3429C31.2507 25.1787 30.1403 25.6356 28.9589 25.638ZM21.97 23.6208C21.9696 23.55 21.9413 23.4821 21.8912 23.432C21.8411 23.3819 21.7733 23.3536 21.7024 23.3533L18.5488 23.3533V19.0775H21.7072C21.8539 19.0775 21.9747 18.9568 21.9747 18.81L21.9747 17.0864C21.9743 17.0155 21.946 16.9477 21.8959 16.8976C21.8458 16.8475 21.778 16.8192 21.7072 16.8189L18.5488 16.8189V14.7828C18.5489 14.7474 18.5417 14.7124 18.5279 14.6799C18.5141 14.6473 18.4938 14.6179 18.4684 14.5934C18.421 14.546 18.3523 14.5152 18.2789 14.5129L13.4563 14.5152C10.1914 14.5176 7.47347 16.852 6.87922 19.9417L3.27581 19.9417C3.20497 19.942 3.13712 19.9703 3.08703 20.0204C3.03693 20.0705 3.00863 20.1383 3.00828 20.2092L3.00828 22.2169C3.00828 22.2926 3.03906 22.3565 3.08878 22.4063C3.1385 22.456 3.20479 22.4844 3.27818 22.4868L6.88158 22.4868C7.13728 23.8268 7.79546 25.0248 8.72353 25.9528C9.93572 27.165 11.6096 27.9155 13.461 27.9155L18.286 27.9155C18.4328 27.9155 18.5536 27.7948 18.5536 27.648V25.6119L21.7119 25.6119C21.8587 25.6119 21.9794 25.4912 21.9794 25.3444L21.97 23.6208ZM13.4563 25.638C12.8752 25.6394 12.2997 25.5258 11.7629 25.3035C11.2261 25.0812 10.7386 24.7547 10.3287 24.3429C9.49299 23.5072 9.03368 22.3992 9.03368 21.2154C9.0322 20.6344 9.14588 20.0588 9.36817 19.522C9.59046 18.9852 9.91693 18.4978 10.3287 18.0879C11.1645 17.2521 12.2725 16.7928 13.4563 16.7928L16.2689 16.7928V25.638L13.4563 25.638Z" fill="#505458"/>
</g>
<path fill-rule="evenodd" clip-rule="evenodd" d="M31.0109 8.67784C31.3361 8.93451 31.3332 9.48008 31.0045 9.89642L12.9858 32.7201C12.6571 33.1364 12.1271 33.2659 11.802 33.0092C11.4769 32.7525 11.4798 32.207 11.8084 31.7906L29.8271 8.96695C30.1558 8.55062 30.6858 8.42118 31.0109 8.67784Z" fill="#816DEC"/>
<defs>
<clipPath id="clip0_611_50619">
<rect width="30" height="30" fill="white" transform="translate(21.2129) rotate(45)"/>
</clipPath>
</defs>
</svg>
