<svg width="30" height="30" viewBox="0 0 30 30" fill="none" xmlns="http://www.w3.org/2000/svg">
<path d="M28.5817 2.84431L27.1621 1.42467C27.1085 1.37109 27.0415 1.34766 26.9712 1.34766C26.9009 1.34766 26.834 1.37444 26.7804 1.42467L24.2324 3.97266C23.1247 3.22216 21.817 2.82203 20.479 2.82422C18.7648 2.82422 17.0505 3.47712 15.7413 4.78627L12.3295 8.1981C12.2796 8.24845 12.2517 8.31643 12.2517 8.38728C12.2517 8.45812 12.2796 8.52611 12.3295 8.57645L21.4266 17.6735C21.4802 17.7271 21.5471 17.7506 21.6174 17.7506C21.6844 17.7506 21.7547 17.7238 21.8083 17.6735L25.2201 14.2617C27.527 11.9515 27.7982 8.37891 26.0337 5.774L28.5817 3.226C28.6855 3.11886 28.6855 2.9481 28.5817 2.84431ZM23.6063 12.6512L21.6174 14.6401L15.363 8.3856L17.3518 6.39676C18.1855 5.56306 19.2971 5.101 20.479 5.101C21.661 5.101 22.7692 5.55971 23.6063 6.39676C24.44 7.23047 24.902 8.34207 24.902 9.52399C24.902 10.7059 24.44 11.8142 23.6063 12.6512ZM17.238 16.1669C17.1876 16.117 17.1196 16.089 17.0488 16.089C16.9779 16.089 16.91 16.117 16.8596 16.1669L14.6297 18.3968L11.6063 15.3733L13.8395 13.1401C13.9433 13.0363 13.9433 12.8655 13.8395 12.7617L12.6208 11.543C12.5704 11.4931 12.5025 11.4652 12.4316 11.4652C12.3608 11.4652 12.2928 11.4931 12.2424 11.543L10.0092 13.7762L8.56944 12.3365C8.54445 12.3115 8.51466 12.2918 8.48187 12.2785C8.44908 12.2653 8.41395 12.2588 8.37859 12.2595C8.31163 12.2595 8.24132 12.2863 8.18775 12.3365L4.77926 15.7483C2.47234 18.0586 2.20114 21.6311 3.96565 24.236L1.41766 26.784C1.36781 26.8344 1.33984 26.9024 1.33984 26.9732C1.33984 27.0441 1.36781 27.112 1.41766 27.1624L2.8373 28.582C2.89087 28.6356 2.95784 28.659 3.02815 28.659C3.09846 28.659 3.16542 28.6323 3.219 28.582L5.76699 26.034C6.89534 26.8008 8.20784 27.1825 9.52034 27.1825C11.2346 27.1825 12.9489 26.5296 14.2581 25.2204L17.6699 21.8086C17.7737 21.7048 17.7737 21.534 17.6699 21.4302L16.2302 19.9905L18.4634 17.7573C18.5672 17.6535 18.5672 17.4827 18.4634 17.3789L17.238 16.1669ZM12.6442 23.6133C12.2344 24.0252 11.7471 24.3518 11.2103 24.5742C10.6735 24.7966 10.098 24.9104 9.51699 24.909C8.33507 24.909 7.22681 24.4503 6.38976 23.6133C5.97786 23.2035 5.65128 22.7161 5.42887 22.1794C5.20646 21.6426 5.09264 21.0671 5.094 20.486C5.094 19.3041 5.5527 18.1959 6.38976 17.3588L8.37859 15.37L14.6331 21.6244L12.6442 23.6133Z" fill="#505458"/>
</svg>
