<svg width="30" height="30" viewBox="0 0 30 30" fill="none" xmlns="http://www.w3.org/2000/svg">
<path d="M14.8661 21.4348C17.528 21.4348 19.6875 19.2752 19.6875 16.6134C19.6875 13.9515 17.528 11.7919 14.8661 11.7919C12.2043 11.7919 10.0447 13.9515 10.0447 16.6134C10.0447 19.2752 12.2043 21.4348 14.8661 21.4348ZM14.8661 13.9348C16.346 13.9348 17.5447 15.1335 17.5447 16.6134C17.5447 18.0933 16.346 19.2919 14.8661 19.2919C13.3862 19.2919 12.1875 18.0933 12.1875 16.6134C12.1875 15.1335 13.3862 13.9348 14.8661 13.9348Z" fill="#505458"/>
<path d="M25.7148 6.43276H24.774L23.5787 2.38477C23.4448 1.92606 23.0262 1.61133 22.5508 1.61133H7.45034C6.97154 1.61133 6.55301 1.92606 6.42243 2.38477L5.22712 6.43276H4.28627C3.69364 6.43276 3.21484 6.91155 3.21484 7.50419V8.44169C3.21484 8.58901 3.33538 8.70954 3.4827 8.70954H5.01618L6.61328 27.416C6.63594 27.6837 6.7583 27.933 6.95611 28.1147C7.15393 28.2964 7.41277 28.3972 7.68136 28.397H22.0519C22.3205 28.3972 22.5793 28.2964 22.7771 28.1147C22.975 27.933 23.0973 27.6837 23.12 27.416L24.7171 8.70954H26.5184C26.6657 8.70954 26.7863 8.58901 26.7863 8.44169V7.50419C26.7863 6.91155 26.3075 6.43276 25.7148 6.43276ZM8.351 3.88811H21.6501L22.4001 6.43276H7.601L8.351 3.88811ZM20.947 26.1203H8.78627L7.29967 8.70954H22.4302L20.947 26.1203Z" fill="#505458"/>
<path fill-rule="evenodd" clip-rule="evenodd" d="M24.7981 3.46495C25.1232 3.72162 25.1203 4.26719 24.7916 4.68353L6.77288 27.5072C6.4442 27.9235 5.91419 28.053 5.58908 27.7963C5.26397 27.5397 5.26687 26.9941 5.59556 26.5777L23.6143 3.75406C23.9429 3.33773 24.4729 3.20829 24.7981 3.46495Z" fill="#816DEC"/>
</svg>
