<svg width="30" height="31" viewBox="0 0 30 31" fill="none" xmlns="http://www.w3.org/2000/svg">
<path d="M14.8661 21.6477C17.528 21.6477 19.6875 19.4881 19.6875 16.8263C19.6875 14.1644 17.528 12.0048 14.8661 12.0048C12.2043 12.0048 10.0447 14.1644 10.0447 16.8263C10.0447 19.4881 12.2043 21.6477 14.8661 21.6477ZM14.8661 14.1477C16.346 14.1477 17.5447 15.3463 17.5447 16.8263C17.5447 18.3062 16.346 19.5048 14.8661 19.5048C13.3862 19.5048 12.1875 18.3062 12.1875 16.8263C12.1875 15.3463 13.3862 14.1477 14.8661 14.1477Z" fill="#505458"/>
<path d="M25.7148 6.64565H24.774L23.5787 2.59766C23.4448 2.13895 23.0262 1.82422 22.5508 1.82422H7.45034C6.97154 1.82422 6.55301 2.13895 6.42243 2.59766L5.22712 6.64565H4.28627C3.69364 6.64565 3.21484 7.12444 3.21484 7.71708V8.65458C3.21484 8.8019 3.33538 8.92243 3.4827 8.92243H5.01618L6.61328 27.6289C6.63594 27.8965 6.7583 28.1459 6.95611 28.3276C7.15393 28.5093 7.41277 28.6101 7.68136 28.6099H22.0519C22.3205 28.6101 22.5793 28.5093 22.7771 28.3276C22.975 28.1459 23.0973 27.8965 23.12 27.6289L24.7171 8.92243H26.5184C26.6657 8.92243 26.7863 8.8019 26.7863 8.65458V7.71708C26.7863 7.12444 26.3075 6.64565 25.7148 6.64565ZM8.351 4.101H21.6501L22.4001 6.64565H7.601L8.351 4.101ZM20.947 26.3331H8.78627L7.29967 8.92243H22.4302L20.947 26.3331Z" fill="#505458"/>
</svg>
