<svg width="30" height="30" viewBox="0 0 30 30" fill="none" xmlns="http://www.w3.org/2000/svg">
<g clip-path="url(#clip0_611_50644)">
<path d="M17.7556 17.9904C18.3846 17.2989 18.7321 16.3972 18.7299 15.4625C18.7299 13.3899 17.0592 11.7125 15 11.7125C12.9408 11.7125 11.2701 13.3899 11.2701 15.4625C11.2701 16.4368 11.6384 17.3207 12.2444 17.9904C11.5183 18.4403 10.9118 19.0594 10.4769 19.7946C10.0419 20.5298 9.79139 21.3594 9.74665 22.2125C9.74483 22.2488 9.75042 22.285 9.76306 22.3191C9.77571 22.3532 9.79515 22.3843 9.82021 22.4106C9.84526 22.4369 9.87541 22.4578 9.90881 22.4721C9.94222 22.4864 9.97818 22.4938 10.0145 22.4937H11.4844C11.625 22.4937 11.7388 22.3832 11.7489 22.2426C11.8761 20.5484 13.2891 19.2125 15.0033 19.2125C16.7176 19.2125 18.1306 20.5518 18.2578 22.2426C18.2679 22.3832 18.3817 22.4937 18.5223 22.4937H19.9888C20.0252 22.4938 20.0611 22.4864 20.0945 22.4721C20.1279 22.4578 20.1581 22.4369 20.1831 22.4106C20.2082 22.3843 20.2276 22.3532 20.2403 22.3191C20.2529 22.285 20.2585 22.2488 20.2567 22.2125C20.1629 20.4279 19.1853 18.8743 17.7556 17.9904ZM15 17.2035C14.0458 17.2035 13.269 16.4234 13.269 15.4625C13.269 14.5015 14.0458 13.7214 15 13.7214C15.9542 13.7214 16.731 14.5015 16.731 15.4625C16.731 16.4234 15.9542 17.2035 15 17.2035ZM28.9286 5.35087H23.5714V3.47586C23.5714 3.32854 23.4509 3.20801 23.3036 3.20801H21.4286C21.2812 3.20801 21.1607 3.32854 21.1607 3.47586V5.35087H16.2054V3.47586C16.2054 3.32854 16.0848 3.20801 15.9375 3.20801H14.0625C13.9152 3.20801 13.7946 3.32854 13.7946 3.47586V5.35087H8.83929V3.47586C8.83929 3.32854 8.71875 3.20801 8.57143 3.20801H6.69643C6.54911 3.20801 6.42857 3.32854 6.42857 3.47586V5.35087H1.07143C0.478795 5.35087 0 5.82966 0 6.42229V25.708C0 26.3006 0.478795 26.7794 1.07143 26.7794H28.9286C29.5212 26.7794 30 26.3006 30 25.708V6.42229C30 5.82966 29.5212 5.35087 28.9286 5.35087ZM27.5893 24.3687H2.41071V7.76158H6.42857V9.63658C6.42857 9.7839 6.54911 9.90444 6.69643 9.90444H8.57143C8.71875 9.90444 8.83929 9.7839 8.83929 9.63658V7.76158H13.7946V9.63658C13.7946 9.7839 13.9152 9.90444 14.0625 9.90444H15.9375C16.0848 9.90444 16.2054 9.7839 16.2054 9.63658V7.76158H21.1607V9.63658C21.1607 9.7839 21.2812 9.90444 21.4286 9.90444H23.3036C23.4509 9.90444 23.5714 9.7839 23.5714 9.63658V7.76158H27.5893V24.3687Z" fill="#505458"/>
</g>
<defs>
<clipPath id="clip0_611_50644">
<rect width="30" height="30" fill="white"/>
</clipPath>
</defs>
</svg>
