<svg width="41" height="30" viewBox="0 0 41 30" fill="none" xmlns="http://www.w3.org/2000/svg">
<g clip-path="url(#clip0_611_50634)">
<path d="M28.7556 17.9904C29.3846 17.2989 29.7321 16.3972 29.7299 15.4625C29.7299 13.3899 28.0592 11.7125 26 11.7125C23.9408 11.7125 22.2701 13.3899 22.2701 15.4625C22.2701 16.4368 22.6384 17.3207 23.2444 17.9904C22.5183 18.4403 21.9118 19.0594 21.4769 19.7946C21.0419 20.5298 20.7914 21.3594 20.7467 22.2125C20.7448 22.2488 20.7504 22.285 20.7631 22.3191C20.7757 22.3532 20.7952 22.3843 20.8202 22.4106C20.8453 22.4369 20.8754 22.4578 20.9088 22.4721C20.9422 22.4864 20.9782 22.4938 21.0145 22.4937H22.4844C22.625 22.4937 22.7388 22.3832 22.7489 22.2426C22.8761 20.5484 24.2891 19.2125 26.0033 19.2125C27.7176 19.2125 29.1306 20.5518 29.2578 22.2426C29.2679 22.3832 29.3817 22.4937 29.5223 22.4937H30.9888C31.0252 22.4938 31.0611 22.4864 31.0945 22.4721C31.1279 22.4578 31.1581 22.4369 31.1831 22.4106C31.2082 22.3843 31.2276 22.3532 31.2403 22.3191C31.2529 22.285 31.2585 22.2488 31.2567 22.2125C31.1629 20.4279 30.1853 18.8743 28.7556 17.9904ZM26 17.2035C25.0458 17.2035 24.269 16.4234 24.269 15.4625C24.269 14.5015 25.0458 13.7214 26 13.7214C26.9542 13.7214 27.731 14.5015 27.731 15.4625C27.731 16.4234 26.9542 17.2035 26 17.2035ZM39.9286 5.35087H34.5714V3.47586C34.5714 3.32854 34.4509 3.20801 34.3036 3.20801H32.4286C32.2812 3.20801 32.1607 3.32854 32.1607 3.47586V5.35087H27.2054V3.47586C27.2054 3.32854 27.0848 3.20801 26.9375 3.20801H25.0625C24.9152 3.20801 24.7946 3.32854 24.7946 3.47586V5.35087H19.8393V3.47586C19.8393 3.32854 19.7188 3.20801 19.5714 3.20801H17.6964C17.5491 3.20801 17.4286 3.32854 17.4286 3.47586V5.35087H12.0714C11.4788 5.35087 11 5.82966 11 6.42229V25.708C11 26.3006 11.4788 26.7794 12.0714 26.7794H39.9286C40.5212 26.7794 41 26.3006 41 25.708V6.42229C41 5.82966 40.5212 5.35087 39.9286 5.35087ZM38.5893 24.3687H13.4107V7.76158H17.4286V9.63658C17.4286 9.7839 17.5491 9.90444 17.6964 9.90444H19.5714C19.7188 9.90444 19.8393 9.7839 19.8393 9.63658V7.76158H24.7946V9.63658C24.7946 9.7839 24.9152 9.90444 25.0625 9.90444H26.9375C27.0848 9.90444 27.2054 9.7839 27.2054 9.63658V7.76158H32.1607V9.63658C32.1607 9.7839 32.2812 9.90444 32.4286 9.90444H34.3036C34.4509 9.90444 34.5714 9.7839 34.5714 9.63658V7.76158H38.5893V24.3687Z" fill="#505458"/>
</g>
<path d="M15.4277 14.0382H14.0617V9.53823C14.0617 8.11791 12.9105 6.9668 11.4902 6.9668H6.50809C5.08778 6.9668 3.93666 8.11791 3.93666 9.53823V14.0382H2.57059C2.21501 14.0382 1.92773 14.3255 1.92773 14.6811V22.3954C1.92773 22.7509 2.21501 23.0382 2.57059 23.0382H15.4277C15.7833 23.0382 16.0706 22.7509 16.0706 22.3954V14.6811C16.0706 14.3255 15.7833 14.0382 15.4277 14.0382ZM5.38309 9.53823C5.38309 8.91747 5.88733 8.41323 6.50809 8.41323H11.4902C12.111 8.41323 12.6152 8.91747 12.6152 9.53823V14.0382H5.38309V9.53823ZM14.6242 21.5918H3.37416V15.4847H14.6242V21.5918ZM8.43666 18.7994V19.8641C8.43666 19.9525 8.50899 20.0248 8.59738 20.0248H9.40095C9.48934 20.0248 9.56166 19.9525 9.56166 19.8641V18.7994C9.72749 18.6803 9.85127 18.5117 9.91518 18.3178C9.97908 18.124 9.97982 17.9148 9.91728 17.7205C9.85475 17.5261 9.73216 17.3567 9.56717 17.2364C9.40219 17.1162 9.20331 17.0514 8.99916 17.0514C8.79502 17.0514 8.59614 17.1162 8.43115 17.2364C8.26617 17.3567 8.14358 17.5261 8.08104 17.7205C8.01851 17.9148 8.01925 18.124 8.08315 18.3178C8.14706 18.5117 8.27083 18.6803 8.43666 18.7994Z" fill="#816DEC"/>
<defs>
<clipPath id="clip0_611_50634">
<rect width="30" height="30" fill="white" transform="translate(11)"/>
</clipPath>
</defs>
</svg>
