<svg width="30" height="30" viewBox="0 0 30 30" fill="none" xmlns="http://www.w3.org/2000/svg">
<path d="M13.394 2.68066H3.2154C2.92076 2.68066 2.67969 2.92174 2.67969 3.21638V13.395C2.67969 13.6896 2.92076 13.9307 3.2154 13.9307H13.394C13.6886 13.9307 13.9297 13.6896 13.9297 13.395V3.21638C13.9297 2.92174 13.6886 2.68066 13.394 2.68066ZM11.6529 11.6539H4.95647V4.95745H11.6529V11.6539ZM26.7868 2.68066H16.6083C16.3136 2.68066 16.0725 2.92174 16.0725 3.21638V13.395C16.0725 13.6896 16.3136 13.9307 16.6083 13.9307H26.7868C27.0815 13.9307 27.3225 13.6896 27.3225 13.395V3.21638C27.3225 2.92174 27.0815 2.68066 26.7868 2.68066ZM25.0458 11.6539H18.3493V4.95745H25.0458V11.6539ZM13.394 16.0735H3.2154C2.92076 16.0735 2.67969 16.3146 2.67969 16.6092V26.7878C2.67969 27.0825 2.92076 27.3235 3.2154 27.3235H13.394C13.6886 27.3235 13.9297 27.0825 13.9297 26.7878V16.6092C13.9297 16.3146 13.6886 16.0735 13.394 16.0735ZM11.6529 25.0467H4.95647V18.3503H11.6529V25.0467ZM26.7868 16.0735H16.6083C16.3136 16.0735 16.0725 16.3146 16.0725 16.6092V26.7878C16.0725 27.0825 16.3136 27.3235 16.6083 27.3235H26.7868C27.0815 27.3235 27.3225 27.0825 27.3225 26.7878V16.6092C27.3225 16.3146 27.0815 16.0735 26.7868 16.0735ZM25.0458 25.0467H18.3493V18.3503H25.0458V25.0467Z" fill="#505458"/>
</svg>
