<svg width="200" height="45" viewBox="0 0 200 45" fill="none" xmlns="http://www.w3.org/2000/svg">
<path d="M86.49 43.1205L110.855 2.59961L135.216 43.1205H86.49Z" fill="white"/>
<path d="M110.855 5.08456L132.954 41.8398H88.7601L110.859 5.08456M110.859 0.106445L84.2283 44.3972H137.486L110.855 0.110715L110.859 0.106445Z" fill="#505458"/>
<path d="M82.6166 43.1214C94.2407 43.1214 103.664 33.7551 103.664 22.2013C103.664 10.6475 94.2407 1.28125 82.6166 1.28125C70.9924 1.28125 61.5691 10.6475 61.5691 22.2013C61.5691 33.7551 70.9924 43.1214 82.6166 43.1214Z" fill="white"/>
<path d="M82.6164 2.56164C93.5143 2.56164 102.381 11.3737 102.381 22.2009C102.381 33.0281 93.5143 41.8401 82.6164 41.8401C71.7186 41.8401 62.8516 33.0281 62.8516 22.2009C62.8516 11.3737 71.7186 2.56164 82.6164 2.56164ZM82.6164 0C70.2864 0 60.2864 9.93916 60.2864 22.2009C60.2864 34.4626 70.2821 44.4017 82.6164 44.4017C94.9508 44.4017 104.946 34.4626 104.946 22.2009C104.946 9.93916 94.9465 0 82.6164 0Z" fill="#505458"/>
<path d="M62.7364 1.30273H33.5701V43.0916H62.7364V1.30273Z" fill="white"/>
<path d="M64.0189 44.3763H32.2874V0.0214844H64.0189V44.372V44.3763ZM34.8526 41.8146H61.4537V2.58312H34.8526V41.8104V41.8146Z" fill="#505458"/>
<path d="M36.1609 42.2539H28.166V42.8687H36.1609V42.2539Z" fill="white"/>
<path d="M37.2297 41.1865H27.0972V43.936H37.2297V41.1865Z" fill="#505458"/>
<path d="M2.26587 43.1205L26.631 2.59961L50.9918 43.1205H2.26587Z" fill="white"/>
<path d="M26.631 5.08456L48.7302 41.8398H4.53185L26.631 5.08456ZM26.631 0.106445L0 44.3972H53.2578L26.631 0.110715V0.106445Z" fill="#505458"/>
<path d="M83.9248 0.0126953H26.6311V2.57433H83.9248V0.0126953Z" fill="#505458"/>
<path d="M84.3566 41.8828H26.6482V44.4445H84.3566V41.8828Z" fill="#505458"/>
<path d="M141.996 24.4592L143.608 24.3183C143.685 24.9629 143.861 25.4923 144.143 25.9065C144.421 26.3206 144.852 26.6536 145.442 26.9098C146.032 27.1659 146.691 27.294 147.422 27.294C148.072 27.294 148.649 27.1958 149.149 27.0037C149.649 26.8116 150.017 26.5469 150.261 26.2096C150.504 25.8723 150.624 25.5052 150.624 25.1081C150.624 24.711 150.509 24.3524 150.273 24.0493C150.038 23.7462 149.649 23.4943 149.111 23.2893C148.764 23.1527 147.999 22.9435 146.815 22.6617C145.63 22.3757 144.797 22.111 144.322 21.8591C143.707 21.5389 143.245 21.1376 142.946 20.6594C142.642 20.1812 142.492 19.6475 142.492 19.0541C142.492 18.4051 142.676 17.7946 143.048 17.2311C143.416 16.6675 143.959 16.2363 144.669 15.9417C145.378 15.6471 146.169 15.502 147.037 15.502C147.995 15.502 148.837 15.6557 149.568 15.963C150.299 16.2704 150.859 16.723 151.253 17.3207C151.646 17.9184 151.855 18.5973 151.885 19.353L150.248 19.4768C150.158 18.6613 149.863 18.0465 149.354 17.6324C148.846 17.2183 148.097 17.0091 147.105 17.0091C146.114 17.0091 145.318 17.1969 144.848 17.5769C144.374 17.9569 144.138 18.4094 144.138 18.9431C144.138 19.4042 144.305 19.7884 144.639 20.0873C144.968 20.3861 145.827 20.6935 147.212 21.0052C148.598 21.3169 149.551 21.5944 150.068 21.8249C150.821 22.1708 151.372 22.6105 151.731 23.1399C152.091 23.6693 152.27 24.2798 152.27 24.9715C152.27 25.6631 152.073 26.3035 151.68 26.9098C151.287 27.516 150.722 27.9899 149.987 28.323C149.252 28.6602 148.422 28.8267 147.499 28.8267C146.332 28.8267 145.353 28.656 144.562 28.3187C143.771 27.9771 143.155 27.4691 142.702 26.786C142.253 26.1029 142.018 25.3301 141.992 24.4677L141.996 24.4592Z" fill="#505458"/>
<path d="M154.6 28.596V15.7109H159.47C160.325 15.7109 160.979 15.7536 161.432 15.8348C162.065 15.9415 162.595 16.1421 163.027 16.4367C163.459 16.7313 163.801 17.1455 164.061 17.6791C164.322 18.2128 164.455 18.7977 164.455 19.4381C164.455 20.5354 164.104 21.4618 163.407 22.2218C162.71 22.9817 161.449 23.3617 159.624 23.3617H156.315V28.6003H154.609L154.6 28.596ZM156.306 21.8375H159.641C160.744 21.8375 161.526 21.6326 161.992 21.2227C162.454 20.8129 162.689 20.2365 162.689 19.4894C162.689 18.9514 162.552 18.4903 162.279 18.1061C162.005 17.7218 161.646 17.4699 161.201 17.3461C160.915 17.2693 160.385 17.2308 159.607 17.2308H156.306V21.8375Z" fill="#505458"/>
<path d="M163.869 28.596L168.824 15.7109H170.663L175.943 28.596H173.997L172.492 24.6938H167.097L165.682 28.596H163.869ZM167.593 23.3062H171.967L170.62 19.737C170.209 18.6526 169.906 17.7602 169.705 17.0643C169.543 17.8926 169.307 18.7123 169.008 19.5278L167.593 23.3062Z" fill="#505458"/>
<path d="M186.52 24.0793L188.226 24.5105C187.867 25.9109 187.225 26.9782 186.293 27.7125C185.361 28.4469 184.228 28.8141 182.882 28.8141C181.535 28.8141 180.359 28.5323 179.487 27.9644C178.615 27.4009 177.952 26.5812 177.499 25.5095C177.046 24.4379 176.815 23.2852 176.815 22.0556C176.815 20.715 177.071 19.5452 177.584 18.5419C178.098 17.5428 178.829 16.7829 179.778 16.2663C180.727 15.7497 181.77 15.4893 182.907 15.4893C184.198 15.4893 185.284 15.818 186.165 16.4755C187.046 17.133 187.657 18.0552 188.003 19.2463L186.323 19.6434C186.024 18.7041 185.588 18.021 185.019 17.5941C184.451 17.1671 183.732 16.9537 182.873 16.9537C181.881 16.9537 181.052 17.1927 180.385 17.6667C179.718 18.1406 179.252 18.7767 178.983 19.5793C178.713 20.3777 178.576 21.206 178.576 22.0556C178.576 23.1528 178.735 24.1092 179.055 24.9246C179.376 25.7401 179.872 26.3549 180.547 26.7562C181.223 27.1618 181.954 27.3625 182.741 27.3625C183.698 27.3625 184.506 27.0849 185.169 26.5342C185.832 25.9834 186.281 25.1637 186.516 24.0793H186.52Z" fill="#505458"/>
<path d="M190.368 28.596V15.7109H199.701V17.2308H192.078V21.1758H199.218V22.6871H192.078V27.0718H200V28.5917H190.368V28.596Z" fill="#505458"/>
<path d="M142.125 9.4572L143.737 9.31631C143.814 9.96099 143.989 10.4904 144.271 10.9045C144.549 11.3187 144.981 11.6517 145.571 11.9078C146.157 12.164 146.819 12.2921 147.55 12.2921C148.2 12.2921 148.777 12.1939 149.278 12.0018C149.778 11.8096 150.145 11.5449 150.389 11.2077C150.633 10.8704 150.752 10.5032 150.752 10.1061C150.752 9.70909 150.637 9.35046 150.402 9.04734C150.167 8.74421 149.778 8.49231 149.239 8.28738C148.893 8.15076 148.127 7.94156 146.943 7.65978C145.759 7.37373 144.925 7.10903 144.451 6.85713C143.835 6.53693 143.373 6.13561 143.074 5.65743C142.77 5.17926 142.621 4.64559 142.621 4.05214C142.621 3.40319 142.805 2.79267 143.177 2.22911C143.544 1.66128 144.087 1.23434 144.797 0.939748C145.507 0.64516 146.298 0.5 147.165 0.5C148.123 0.5 148.965 0.653698 149.696 0.961095C150.428 1.26849 150.988 1.72105 151.381 2.31876C151.774 2.91648 151.984 3.59531 152.014 4.351L150.376 4.47481C150.286 3.65936 149.991 3.04456 149.483 2.63043C148.974 2.2163 148.226 2.0071 147.234 2.0071C146.242 2.0071 145.447 2.19495 144.977 2.57493C144.502 2.9549 144.267 3.40746 144.267 3.94114C144.267 4.40223 144.434 4.78648 144.767 5.08533C145.096 5.38419 145.956 5.69159 147.341 6.00326C148.73 6.31492 149.679 6.59243 150.197 6.82725C150.949 7.17307 151.501 7.61282 151.86 8.14222C152.219 8.67163 152.398 9.28215 152.398 9.9738C152.398 10.6654 152.202 11.3058 151.809 11.9121C151.415 12.5184 150.851 12.9923 150.115 13.3295C149.38 13.6668 148.551 13.8333 147.627 13.8333C146.46 13.8333 145.481 13.6626 144.69 13.3253C143.899 12.9837 143.283 12.4757 142.83 11.7926C142.381 11.1095 142.146 10.3367 142.121 9.47428L142.125 9.4572Z" fill="#505458"/>
<path d="M150.368 30.4404H152.073V37.8863C152.073 39.1799 151.928 40.2088 151.633 40.973C151.338 41.733 150.808 42.3563 150.043 42.8345C149.277 43.3127 148.273 43.5518 147.029 43.5518C145.784 43.5518 144.831 43.3426 144.061 42.9284C143.292 42.5143 142.745 41.9123 142.415 41.1225C142.086 40.3326 141.924 39.2567 141.924 37.8905V30.4447H143.63V37.882C143.63 39.0006 143.732 39.8246 143.942 40.3582C144.151 40.8876 144.506 41.2975 145.015 41.5836C145.524 41.8696 146.144 42.0148 146.879 42.0148C148.136 42.0148 149.029 41.7287 149.564 41.1609C150.098 40.5931 150.363 39.5001 150.363 37.882V30.4447L150.368 30.4404Z" fill="#505458"/>
</svg>
