<svg width="132" height="56" viewBox="0 0 132 56" fill="none" xmlns="http://www.w3.org/2000/svg">
<g clip-path="url(#clip0_303_16036)">
<path d="M83.291 54.7377L106.532 15.9707L129.768 54.7377H83.291Z" fill="white"/>
<path d="M106.531 18.3481L127.61 53.5125H85.4555L106.535 18.3481M106.535 13.5854L81.1328 55.9592H131.933L106.531 13.5854H106.535Z" fill="#505458"/>
<path d="M79.5937 54.7382C90.6814 54.7382 99.6698 45.7773 99.6698 34.7236C99.6698 23.6698 90.6814 14.709 79.5937 14.709C68.506 14.709 59.5176 23.6698 59.5176 34.7236C59.5176 45.7773 68.506 54.7382 79.5937 54.7382Z" fill="white"/>
<path d="M79.5944 15.9342C89.9893 15.9342 98.4471 24.3648 98.4471 34.7234C98.4471 45.0819 89.9893 53.5126 79.5944 53.5126C69.1996 53.5126 60.7417 45.0819 60.7417 34.7234C60.7417 24.3648 69.1996 15.9342 79.5944 15.9342ZM79.5944 13.4834C67.8334 13.4834 58.2949 22.9924 58.2949 34.7234C58.2949 46.4544 67.8293 55.9633 79.5944 55.9633C91.3595 55.9633 100.894 46.4544 100.894 34.7234C100.894 22.9924 91.3595 13.4834 79.5944 13.4834Z" fill="#505458"/>
<path d="M60.6308 14.7295H32.8105V54.7096H60.6308V14.7295Z" fill="white"/>
<path d="M61.8589 55.9389H31.5918V13.5039H61.8589V55.9348V55.9389ZM34.0386 53.4882H59.4121V15.9547H34.0386V53.4841V53.4882Z" fill="#505458"/>
<path d="M35.288 53.9087H27.6621V54.4969H35.288V53.9087Z" fill="white"/>
<path d="M36.3075 52.8877H26.6426V55.5182H36.3075V52.8877Z" fill="#505458"/>
<path d="M2.95312 54.7377L26.1938 15.9707L49.4304 54.7377H2.95312Z" fill="white"/>
<path d="M26.193 18.3481L47.2723 53.5125H5.11372L26.193 18.3481ZM26.193 13.5854L0.791016 55.9633H51.591L26.1889 13.5895L26.193 13.5854Z" fill="#505458"/>
<path d="M80.843 13.4956H26.1934V15.9464H80.843V13.4956Z" fill="#505458"/>
<path d="M81.2541 53.5532H26.209V56.004H81.2541V53.5532Z" fill="#505458"/>
<path d="M0.0683594 23.1601L1.61801 23.0253C1.69141 23.6462 1.86269 24.1568 2.13184 24.553C2.40099 24.9492 2.81695 25.2719 3.37971 25.5169C3.94248 25.762 4.57865 25.8846 5.28415 25.8846C5.90809 25.8846 6.4627 25.7906 6.93983 25.6027C7.41696 25.4148 7.77582 25.1616 8.00827 24.8348C8.24072 24.508 8.35898 24.1568 8.35898 23.7728C8.35898 23.3889 8.2448 23.0417 8.0205 22.7517C7.79621 22.4617 7.42104 22.2166 6.90313 22.0205C6.56873 21.8898 5.83468 21.6897 4.69692 21.416C3.55915 21.1423 2.75985 20.885 2.30312 20.6399C1.7118 20.3295 1.27138 19.9455 0.977759 19.484C0.688219 19.0224 0.54141 18.5078 0.54141 17.94C0.54141 17.315 0.720843 16.7269 1.07563 16.1836C1.43042 15.6404 1.94833 15.2237 2.63344 14.9419C3.31854 14.6601 4.07298 14.5171 4.90897 14.5171C5.82653 14.5171 6.63805 14.6641 7.33948 14.9623C8.04089 15.2605 8.57919 15.6935 8.95845 16.2694C9.33771 16.8453 9.53753 17.4989 9.56608 18.2259L7.99196 18.3444C7.90632 17.5601 7.62086 16.9679 7.13557 16.5635C6.64621 16.1632 5.92848 15.963 4.97422 15.963C4.01996 15.963 3.25737 16.1468 2.80471 16.5104C2.35205 16.8739 2.12368 17.315 2.12368 17.8256C2.12368 18.2708 2.28273 18.6385 2.60489 18.9285C2.9189 19.2185 3.74674 19.5126 5.08025 19.8148C6.41376 20.1171 7.32724 20.3826 7.82476 20.6072C8.54657 20.9422 9.08079 21.3629 9.42335 21.8735C9.7659 22.384 9.94125 22.9722 9.94125 23.638C9.94125 24.3038 9.75366 24.9206 9.37441 25.5047C8.99515 26.0888 8.45278 26.5422 7.74728 26.8689C7.0377 27.1957 6.24249 27.355 5.35756 27.355C4.2361 27.355 3.29408 27.1916 2.53556 26.8649C1.77705 26.5381 1.18166 26.0439 0.749389 25.3862C0.317119 24.7286 0.0928275 23.9852 0.0683594 23.156V23.1601Z" fill="#505458"/>
<path d="M12.1818 12.634V0.216797H16.8593C17.6831 0.216797 18.3111 0.257643 18.7434 0.335251C19.351 0.437366 19.8607 0.629342 20.2726 0.915265C20.6845 1.20119 21.0148 1.60148 21.2676 2.11206C21.5205 2.62672 21.6428 3.19039 21.6428 3.80717C21.6428 4.86508 21.3084 5.75553 20.6356 6.48667C19.9627 7.21782 18.7515 7.58543 16.998 7.58543H13.8171V12.634H12.1777H12.1818ZM13.8212 6.11906H17.0265C18.0868 6.11906 18.8412 5.923 19.2857 5.52679C19.7302 5.13058 19.9545 4.57508 19.9545 3.85618C19.9545 3.33744 19.824 2.89222 19.563 2.52052C19.302 2.14882 18.9554 1.90783 18.5272 1.78937C18.2499 1.71585 17.7402 1.67909 16.998 1.67909H13.8253V6.11906H13.8212Z" fill="#505458"/>
<path d="M21.084 12.634L25.8471 0.216797H27.6129L32.686 12.634H30.8182L29.3705 8.87208H24.1874L22.8253 12.634H21.084ZM24.6604 7.53233H28.8649L27.5721 4.09309C27.1766 3.04743 26.8829 2.18966 26.6913 1.51979C26.5322 2.31629 26.312 3.1087 26.0225 3.89295L24.6604 7.53642V7.53233Z" fill="#505458"/>
<path d="M42.8478 8.2795L44.4871 8.69613C44.1446 10.0441 43.5247 11.0734 42.6316 11.7841C41.7385 12.4948 40.6456 12.8461 39.3529 12.8461C38.0602 12.8461 36.9305 12.5724 36.0945 12.0292C35.2586 11.4859 34.6183 10.6935 34.182 9.6601C33.7456 8.62669 33.5254 7.51568 33.5254 6.33114C33.5254 5.03632 33.7701 3.90897 34.2635 2.945C34.757 1.98104 35.4584 1.24989 36.3678 0.751568C37.2772 0.253246 38.2804 0 39.3733 0C40.613 0 41.657 0.314515 42.5011 0.947629C43.3453 1.58074 43.9366 2.47119 44.2669 3.61488L42.652 3.99475C42.3625 3.09205 41.9465 2.43443 41.4001 2.02188C40.8536 1.60934 40.1644 1.40511 39.3366 1.40511C38.3823 1.40511 37.5871 1.63384 36.9469 2.09132C36.3066 2.5488 35.858 3.16149 35.597 3.93348C35.336 4.70547 35.2096 5.49788 35.2096 6.31889C35.2096 7.3768 35.3646 8.29584 35.6704 9.08417C35.9763 9.8725 36.4575 10.4607 37.1059 10.8487C37.7543 11.2368 38.4557 11.4328 39.2102 11.4328C40.1277 11.4328 40.9066 11.1673 41.5428 10.6363C42.179 10.1053 42.6112 9.31699 42.8355 8.27133L42.8478 8.2795Z" fill="#505458"/>
<path d="M46.543 12.634V0.216797H55.5065V1.68317H48.1823V5.48594H55.0416V6.94415H48.1823V11.1717H55.796V12.6381H46.543V12.634Z" fill="#505458"/>
<path d="M0.191578 8.70456L1.74123 8.56977C1.81463 9.19063 1.98591 9.7012 2.25506 10.0974C2.52421 10.4936 2.94017 10.8163 3.50293 11.0614C4.0657 11.3065 4.70187 11.429 5.40737 11.429C6.03131 11.429 6.58592 11.335 7.06305 11.1512C7.54018 10.9674 7.89904 10.7101 8.13149 10.3833C8.36394 10.0566 8.4822 9.70529 8.4822 9.32133C8.4822 8.93738 8.36802 8.59019 8.14372 8.30018C7.91943 8.01017 7.54425 7.7651 7.02635 7.56904C6.69195 7.43833 5.9579 7.23818 4.82013 6.96451C3.68237 6.69085 2.88307 6.43351 2.42633 6.18844C1.83502 5.87801 1.39459 5.49405 1.10098 5.03249C0.811438 4.57093 0.664629 4.05627 0.664629 3.48443C0.664629 2.85948 0.844062 2.2713 1.19885 1.72804C1.55364 1.18479 2.07155 0.768161 2.75665 0.486323C3.43768 0.204485 4.1962 0.0615234 5.02811 0.0615234C5.94567 0.0615234 6.7572 0.208569 7.45862 0.506746C8.16004 0.804922 8.69834 1.23789 9.07759 1.81382C9.45685 2.38975 9.65667 3.04329 9.68522 3.77035L8.1111 3.8888C8.02546 3.10456 7.74 2.51229 7.25472 2.10791C6.76535 1.70762 6.04762 1.50748 5.09336 1.50748C4.1391 1.50748 3.37651 1.69128 2.92385 2.05481C2.47119 2.41834 2.24282 2.85948 2.24282 3.37414C2.24282 3.81936 2.40187 4.18698 2.72403 4.47699C3.03804 4.76699 3.86588 5.06109 5.19939 5.36335C6.5329 5.66561 7.44638 5.93111 7.9439 6.15576C8.66571 6.4907 9.19993 6.91141 9.54249 7.42199C9.88504 7.93257 10.0604 8.52075 10.0604 9.18654C10.0604 9.85233 9.87281 10.4691 9.49355 11.0532C9.11429 11.6373 8.57192 12.0907 7.86642 12.4175C7.15684 12.7402 6.36163 12.9035 5.4767 12.9035C4.35524 12.9035 3.41322 12.7402 2.6547 12.4134C1.89619 12.0866 1.3008 11.5924 0.86853 10.9348C0.436259 10.2771 0.211968 9.53373 0.1875 8.70456H0.191578Z" fill="#505458"/>
<path d="M8.11119 28.9272H9.75055V36.1039C9.75055 37.3538 9.60782 38.3423 9.32644 39.0775C9.04506 39.8127 8.5353 40.4091 7.80126 40.8706C7.06721 41.3322 6.10072 41.5609 4.90586 41.5609C3.711 41.5609 2.79345 41.3608 2.05532 40.9605C1.3172 40.5602 0.791136 39.9802 0.473051 39.2205C0.159043 38.4607 0 37.4232 0 36.108V28.9313H1.63937V36.0998C1.63937 37.1782 1.74132 37.9747 1.94114 38.4852C2.14096 38.9958 2.48352 39.392 2.97288 39.6657C3.46224 39.9434 4.05763 40.0823 4.76313 40.0823C5.97023 40.0823 6.83069 39.8086 7.34452 39.2613C7.85835 38.714 8.11527 37.6601 8.11527 36.0998V28.9313L8.11119 28.9272Z" fill="#505458"/>
</g>
<defs>
<clipPath id="clip0_303_16036">
<rect width="131.932" height="56" fill="white"/>
</clipPath>
</defs>
</svg>
