<svg width="545" height="164" viewBox="0 0 545 164" fill="none" xmlns="http://www.w3.org/2000/svg">
<g clip-path="url(#clip0_567_33118)">
<path d="M374.171 156.41C370.696 156.41 368.97 154.07 368.403 153.077C367.836 152.085 366.654 149.414 368.403 146.413L446.914 10.4222C448.664 7.42072 451.548 7.08984 452.706 7.08984C453.865 7.08984 456.749 7.42072 458.475 10.4222L537.01 146.389C538.759 149.39 537.577 152.061 537.01 153.054C536.443 154.046 534.717 156.386 531.242 156.386H374.195L374.171 156.41Z" fill="white"/>
<path d="M452.706 14.6058L530.509 149.32H374.904L452.706 14.6058ZM452.706 0C448.073 0 443.439 2.2925 440.791 6.87751L362.28 142.844C356.984 152.014 363.604 163.5 374.195 163.5H531.241C541.833 163.5 548.452 152.038 543.156 142.844L464.621 6.87751C461.973 2.2925 457.34 0 452.706 0Z" fill="#505458"/>
<path d="M348.686 156.41C389.161 156.41 421.973 123.608 421.973 83.1444C421.973 42.681 389.161 9.87891 348.686 9.87891C308.211 9.87891 275.399 42.681 275.399 83.1444C275.399 123.608 308.211 156.41 348.686 156.41Z" fill="white"/>
<path d="M348.686 16.9695C385.187 16.9695 414.88 46.6538 414.88 83.1448C414.88 119.636 385.187 149.32 348.686 149.32C312.184 149.32 282.491 119.636 282.491 83.1448C282.491 46.6538 312.184 16.9695 348.686 16.9695ZM348.686 2.78906C304.288 2.78906 268.307 38.7601 268.307 83.1448C268.307 127.53 304.288 163.501 348.686 163.501C393.083 163.501 429.065 127.53 429.065 83.1448C429.065 38.7601 393.06 2.78906 348.686 2.78906Z" fill="#505458"/>
<path d="M282.184 157.592V160.711H314.548V154.448H311.404V157.592H282.184Z" fill="white"/>
<path d="M314.548 154.448H311.404V157.592H282.184V160.711H314.548V154.448Z" fill="#505458"/>
<path d="M190.339 157.592V158.631V157.592H161.095V154.448H157.975V160.711H282.184V157.592H190.339Z" fill="white"/>
<path d="M161.095 154.448H157.975V160.711H282.184V157.592H190.339V158.631V157.592H161.095V154.448Z" fill="#505458"/>
<path d="M282.184 10.4463H190.339V154.448H282.184V10.4463Z" fill="white"/>
<path d="M282.184 161.539H190.339C186.415 161.539 183.247 158.372 183.247 154.449V10.4467C183.247 6.52341 186.415 3.35645 190.339 3.35645H282.184C286.109 3.35645 289.277 6.52341 289.277 10.4467V154.449C289.277 158.372 286.109 161.539 282.184 161.539ZM197.432 147.359H275.092V17.5369H197.432V147.359Z" fill="#505458"/>
<path d="M190.339 8.36607V10.4459H282.184H311.404V7.32617H161.095V10.4459H190.339V8.36607Z" fill="white"/>
<path d="M311.404 1.41797H161.096C157.831 1.41797 155.185 4.0633 155.185 7.32648V10.4462C155.185 13.7094 157.831 16.3547 161.096 16.3547H311.404C314.669 16.3547 317.315 13.7094 317.315 10.4462V7.32648C317.315 4.0633 314.669 1.41797 311.404 1.41797Z" fill="#505458"/>
<path d="M282.184 154.448H190.339V157.568H282.184V154.448Z" fill="white"/>
<path d="M282.184 148.54H190.339C187.075 148.54 184.429 151.185 184.429 154.449V157.568C184.429 160.831 187.075 163.477 190.339 163.477H282.184C285.448 163.477 288.095 160.831 288.095 157.568V154.449C288.095 151.185 285.448 148.54 282.184 148.54Z" fill="#505458"/>
<path d="M465.708 163.5H282.184C278.26 163.5 275.092 160.333 275.092 156.41C275.092 152.486 278.26 149.319 282.184 149.319H465.708C469.633 149.319 472.801 152.486 472.801 156.41C472.801 160.333 469.633 163.5 465.708 163.5Z" fill="#505458"/>
<path d="M190.316 154.448H161.095V157.568H190.316V154.448Z" fill="white"/>
<path d="M190.316 148.54H161.096C157.831 148.54 155.185 151.185 155.185 154.449V157.568C155.185 160.831 157.831 163.477 161.096 163.477H190.316C193.58 163.477 196.226 160.831 196.226 157.568V154.449C196.226 151.185 193.58 148.54 190.316 148.54Z" fill="#505458"/>
<path d="M57.3828 156.41C53.9075 156.41 52.1818 154.07 51.6144 153.077C51.047 152.085 49.865 149.414 51.6144 146.413L130.126 10.4222C131.875 7.42072 134.759 7.08984 135.918 7.08984C137.076 7.08984 139.96 7.42072 141.686 10.4222L220.221 146.389C221.971 149.39 220.789 152.061 220.221 153.054C219.654 154.046 217.928 156.386 214.453 156.386H57.3828V156.41Z" fill="#816DEC"/>
<path d="M135.918 14.6058L213.72 149.32H58.1157L135.918 14.6058ZM135.918 0C131.284 0 126.651 2.2925 124.003 6.87751L45.4678 142.844C40.1722 152.014 46.7917 163.5 57.3828 163.5H214.429C225.021 163.5 231.64 152.038 226.344 142.844L147.833 6.87751C145.185 2.2925 140.552 0 135.918 0Z" fill="#816DEC"/>
</g>
<path d="M0.5 143.612V117.952H5.48504V143.582C5.48504 147.525 5.84389 150.498 6.6145 152.464L6.61501 152.465C7.39217 154.432 8.71476 155.961 10.5997 157.022C12.4756 158.078 14.7395 158.602 17.385 158.602C21.8527 158.602 25.1562 157.586 27.1694 155.444C28.1867 154.362 28.9178 152.812 29.3965 150.844C29.876 148.872 30.1101 146.448 30.1101 143.582V117.937H35.1101V143.597C35.1101 148.112 34.6023 151.658 33.5987 154.262C32.6064 156.821 30.8224 158.929 28.2199 160.558C25.6391 162.173 22.2154 163.002 17.91 163.002C13.6001 163.002 10.3433 162.276 7.73721 160.872C5.13663 159.47 3.29679 157.442 2.18661 154.775C1.06772 152.086 0.5 148.381 0.5 143.612Z" fill="#505458" stroke="#505458"/>
<path d="M8.40596 21.8916L8.40967 21.8936C10.0131 22.7459 12.8823 23.664 17.0373 24.669C21.1804 25.6562 23.9006 26.3985 25.156 26.894C27.0879 27.6303 28.547 28.5578 29.4503 29.7239C30.3484 30.8833 30.785 32.2531 30.785 33.7501C30.785 35.2535 30.33 36.6453 29.4155 37.9127C28.4905 39.1948 27.1114 40.1761 25.2895 40.8768C23.4674 41.5777 21.3798 41.9301 19.05 41.9301C16.4267 41.9301 14.0323 41.4698 11.9055 40.5386C9.77372 39.6117 8.17239 38.3888 7.13061 36.8349C7.13028 36.8344 7.12997 36.834 7.12965 36.8335L7.54502 36.5551C6.55501 35.1001 5.94001 33.2401 5.67001 30.9751L8.40596 21.8916ZM8.40596 21.8916C6.30635 20.7981 4.76165 19.4433 3.76899 17.8551L3.76727 17.8524C2.75602 16.2571 2.25498 14.476 2.25498 12.48C2.25498 10.3001 2.87004 8.25045 4.12249 6.35018L4.12251 6.35019L4.12488 6.34652C5.35116 4.45006 7.16932 3.00953 9.5819 2.00671C12.0028 1.00043 14.7113 0.5 17.7 0.5C21.0067 0.5 23.8936 1.0314 26.386 2.08082C28.8692 3.12637 30.7521 4.65581 32.0722 6.66461C33.3153 8.55638 34.0171 10.6914 34.1841 13.0684L29.4019 13.4305C29.0162 10.7027 27.9535 8.57084 26.146 7.09747C24.2369 5.54131 21.4802 4.79502 17.94 4.79502C14.4241 4.79502 11.4915 5.45688 9.70637 6.90063C7.94209 8.31556 7.03 10.0414 7.03 12.09C7.03 13.845 7.6702 15.3321 8.94972 16.481C9.60471 17.076 10.7267 17.6348 12.2423 18.1765C13.7744 18.7241 15.7648 19.273 18.2051 19.8228L18.2055 19.8229C23.0786 20.9175 26.3632 21.8833 28.127 22.6847C30.7053 23.8715 32.5594 25.3639 33.7561 27.1305C34.9554 28.9009 35.5601 30.9465 35.5601 33.2851C35.5601 35.613 34.9011 37.7693 33.5704 39.8233C32.2476 41.8651 30.345 43.4709 27.8413 44.6208C25.3362 45.7714 22.499 46.3452 19.32 46.3452C15.2712 46.3452 11.9078 45.7516 9.21242 44.6008C6.52279 43.4375 4.44094 41.7144 2.90729 39.3997C1.45825 37.1913 0.663948 34.7046 0.516823 31.9281L5.23674 31.5149L8.40596 21.8916Z" fill="#505458" stroke="#505458"/>
<path d="M8.406 80.7803L8.40972 80.7822C10.0131 81.6345 12.8822 82.5527 17.0372 83.5577C21.1804 84.5449 23.9005 85.2871 25.156 85.7826C27.0879 86.519 28.547 87.4465 29.4503 88.6126C30.3484 89.7719 30.7851 91.1418 30.7851 92.6388C30.7851 94.1422 30.33 95.534 29.4155 96.8014C28.4905 98.0835 27.1114 99.0648 25.2895 99.7655C23.4674 100.466 21.3799 100.819 19.0501 100.819C16.4256 100.819 14.0464 100.358 11.9057 99.4273C9.77397 98.5005 8.1726 97.2777 7.13079 95.7238C7.1304 95.7233 7.13003 95.7227 7.12965 95.7221L7.54501 95.4438C6.55501 93.9888 5.94001 92.1288 5.67001 89.8638L8.406 80.7803ZM8.406 80.7803C6.30639 79.6867 4.7617 78.332 3.76903 76.7437L3.76732 76.741C2.75606 75.1458 2.25502 73.3647 2.25502 71.3687C2.25502 69.1888 2.87005 67.1391 4.12249 65.2388L4.12394 65.2366C5.35124 63.3529 7.17085 61.8976 9.58195 60.8954C12.0028 59.8891 14.7113 59.3887 17.7001 59.3887C21.0068 59.3887 23.8936 59.9201 26.386 60.9695C28.8692 62.015 30.7522 63.5445 32.0722 65.5533C33.3154 67.445 34.0171 69.5801 34.1841 71.9571L29.4019 72.3192C29.0162 69.5913 27.9535 67.4595 26.146 65.9861C24.2369 64.43 21.4802 63.6837 17.94 63.6837C14.4241 63.6837 11.4915 64.3455 9.70637 65.7893C7.94208 67.2042 7.03005 68.9301 7.03005 70.9787C7.03005 72.7337 7.6703 74.2209 8.94995 75.3698C9.60497 75.9647 10.7269 76.5235 12.2424 77.0652C13.7745 77.6128 15.7648 78.1617 18.2051 78.7115C23.0618 79.8058 26.3627 80.7716 28.1287 81.5592C30.7062 82.7458 32.5596 84.2379 33.7561 86.0042C34.9554 87.7746 35.5601 89.8202 35.5601 92.1588C35.5601 94.4867 34.9012 96.643 33.5705 98.6969C32.2476 100.739 30.3454 102.344 27.8436 103.478L27.8414 103.479C25.3362 104.63 22.4991 105.204 19.3201 105.204C15.2713 105.204 11.9079 104.61 9.21254 103.459C6.52288 102.296 4.44102 100.573 2.90736 98.2584C1.4635 96.0579 0.669659 93.5812 0.518431 90.8166L5.23674 90.4036L8.406 80.7803Z" fill="#505458" stroke="#505458"/>
<path d="M44.7334 104.408V60.123H61.3185C64.308 60.123 66.5685 60.273 68.1153 60.5502L68.1152 60.5502L68.1202 60.5511C70.2843 60.9166 72.0728 61.5996 73.5164 62.5859C74.9489 63.5645 76.0959 64.9474 76.9791 66.7574C77.8589 68.5601 78.3085 70.5395 78.3085 72.7181C78.3085 76.4559 77.1202 79.5883 74.7647 82.1605C72.4659 84.6709 68.2238 86.0031 61.8584 86.0031H50.2484H49.7484V86.5031V104.408H44.7334ZM49.7184 81.1481V81.6481H50.2184H61.9185C65.8252 81.6481 68.7244 80.9262 70.4989 79.3633L70.5007 79.3618C72.2478 77.8088 73.1135 75.6362 73.1135 72.8981C73.1135 70.9194 72.6094 69.1945 71.581 67.7483C70.5554 66.3061 69.1995 65.3526 67.5278 64.8864L67.5278 64.8864L67.5232 64.8852C66.4462 64.5958 64.5238 64.4631 61.7985 64.4631H50.2184H49.7184V64.9631V81.1481Z" fill="#505458" stroke="#505458"/>
<path d="M107.474 91.0035L107.351 90.6832H107.007H88.0774H87.7267L87.6073 91.0129L82.7617 104.393H77.4801L94.4811 60.123H100.252L118.368 104.393H112.631L107.474 91.0035ZM89.3491 86.133L89.0966 86.8081H89.8175H105.163H105.885L105.63 86.1318L100.905 73.5918L100.905 73.5913C99.4679 69.7885 98.4079 66.6671 97.7079 64.2395L96.7368 64.282C96.1725 67.1631 95.3552 70.0172 94.3136 72.8595C94.3134 72.86 94.3132 72.8605 94.313 72.861L89.3491 86.133Z" fill="#505458" stroke="#505458"/>
<path d="M156.588 89.6307L161.6 90.8995C160.34 95.4978 158.182 98.9828 155.123 101.396C151.953 103.898 148.091 105.159 143.463 105.159C138.801 105.159 134.78 104.181 131.826 102.255L131.825 102.254C128.859 100.335 126.595 97.5391 125.039 93.8544C123.476 90.1534 122.678 86.1698 122.678 81.9138C122.678 77.2683 123.565 73.239 125.323 69.7966C127.079 66.3718 129.575 63.7774 132.812 62.0128C136.066 60.2396 139.643 59.3438 143.553 59.3438C147.995 59.3438 151.694 60.4746 154.684 62.7092C157.552 64.8532 159.59 67.8296 160.801 71.6797L155.87 72.8465C154.804 69.7052 153.275 67.3512 151.264 65.8391C149.165 64.261 146.533 63.4888 143.433 63.4888C139.871 63.4888 136.854 64.3498 134.413 66.0864C131.984 67.815 130.286 70.1386 129.309 73.0547C128.347 75.9109 127.858 78.8746 127.858 81.9138C127.858 85.8154 128.42 89.2402 129.573 92.1766C130.732 95.1294 132.538 97.3834 135.016 98.858C137.465 100.33 140.118 101.059 142.968 101.059C146.432 101.059 149.384 100.051 151.808 98.0332C154.135 96.0961 155.718 93.2744 156.588 89.6307Z" fill="#505458" stroke="#505458"/>
<path d="M175.727 100.038H203.022V104.378H170.227V60.123H201.972V64.4631H175.727H175.227V64.9631V78.8231V79.3231H175.727H200.277V83.6331H175.727H175.227V84.1331V99.5382V100.038H175.727Z" fill="#505458" stroke="#505458"/>
<defs>
<clipPath id="clip0_567_33118">
<rect width="501.4" height="163.5" fill="white" transform="translate(43.6001)"/>
</clipPath>
</defs>
</svg>
